<svg id="_Layer_" data-name="&lt;Layer&gt;" xmlns="http://www.w3.org/2000/svg" viewBox="0 0 2492.16 1825.27"><defs><style>.cls-1{fill:#d5d6da;}.cls-2{fill:#eaeaea;}.cls-3{fill:#fff;}.cls-4{opacity:0.5;}.cls-5{fill:#68a1bf;}.cls-6{fill:#00a3fe;}.cls-7{fill:#ff7955;}.cls-8{fill:#657285;}.cls-9{fill:#131f2d;}.cls-10{fill:#364154;}.cls-11{fill:#5c305d;}.cls-12{fill:#080435;}.cls-13{fill:#020202;}.cls-14{fill:#b05638;}.cls-15{fill:#016eb9;}.cls-16{fill:#a0462d;}.cls-17{fill:#b8c1c9;}.cls-18{fill:#e9633e;}.cls-19{opacity:0.3;}.cls-20{fill:#ec865c;}.cls-21{fill:#daebe8;}.cls-22{fill:#366f90;}.cls-23{opacity:0.4;}</style></defs><title>Mission</title><path class="cls-1" d="M1839.42,1672.74s286.32-858.47,475.21-755.37S2017.82,1441,1941,1694.11Z" transform="translate(-423.62 -87.36)"/><path class="cls-2" d="M1935.93,1556.7s502.39-807.95,716.26-625.44-456.47,446-595.27,687.16Z" transform="translate(-423.62 -87.36)"/><path class="cls-3" d="M2003.36,1592c93.37-168.64,241.77-311.46,349.82-401.57,117.14-97.69,213.35-156.17,214.31-156.75l-3-7.27c-1,.58-97.6,59.31-215.12,157.33-108.53,90.51-257.62,234-351.58,403.73Z" transform="translate(-423.62 -87.36)"/><path class="cls-1" d="M2772.12,1458c-91.21,36.66-60.58,206.29-169.79,188.26-92.36-15.31-100.82-24.41-129.2,11.12a183.21,183.21,0,0,0-24.36,41.12c-7.84,18-23.65,45-50.47,54.36-163.84,57.25-418.51-213-258.87-400.85,11.53-13.56,29.44-20.53,49.37-27,108.12-35.11,147.78,21.74,220.55-146.88s210.23,41.76,283.27,24.25,135.67-52.8,201.48,34.63S2863.35,1421.42,2772.12,1458Z" transform="translate(-423.62 -87.36)"/><g class="cls-4"><path class="cls-3" d="M2211.83,1563.28l-4.07-5.88c2.13-2.18,218.94-218.63,701.94-295.18l.82,7.62C2429.34,1346.1,2214,1561.11,2211.83,1563.28Z" transform="translate(-423.62 -87.36)"/><path class="cls-5" d="M2493.12,1297.12c-70-61.53-86.11-115.49-86.77-117.75l6-2.54c.15.53,16.29,54.12,84.51,114.07Z" transform="translate(-423.62 -87.36)"/><path class="cls-5" d="M2511.42,1378c-21.31-36.08-24.48-91.65-9.16-160.69a582.25,582.25,0,0,1,29.64-93.84l5.58,3.58c-.7,1.62-69.94,163.51-20.92,246.48Z" transform="translate(-423.62 -87.36)"/></g><path class="cls-2" d="M2406.86,865.56c10.75-18.91,20.43-19.11,28.41-12.4s11.27,17.75.51,36.66c-19.59,34.45-43.53,39-43.53,39S2387,900.51,2406.86,865.56Z" transform="translate(-423.62 -87.36)"/><path class="cls-1" d="M1337.53,1252.67s9.23-401.15-80.5-400.11,42.86,270.48,37.13,387.15Z" transform="translate(-423.62 -87.36)"/><path class="cls-2" d="M1336.25,1284.34s-114-540.45-254.72-502.86,154,344.6,182.4,503Z" transform="translate(-423.62 -87.36)"/><path class="cls-3" d="M1295.8,1284.86c-18-109.84-68.42-220.76-107.59-294.46-42.46-79.9-81.14-134.46-81.53-135l2.79-2.92c.39.54,39.24,55.34,81.84,135.5,39.34,74,90,185.48,108.1,296Z" transform="translate(-423.62 -87.36)"/><path class="cls-2" d="M1084.06,1389.12c-56-7-12.58,12.86-79.78,8.25-14.25,32.88-93.65-1.81-118.45-51-31.6-62.69-31.59-48.29-127.37-37.55-68.71,7.67-71.65-65.56-96.76-120.9-.46-1-.93-2-1.4-3-9.74-20.54-22.85-38.3-44-48.05a266.39,266.39,0,0,1-64.52-42.32q-2.43-2.14-4.8-4.38c-38.51-36.15-62.92-83-45-127.06.42-1,.87-2.08,1.34-3.11a97.35,97.35,0,0,1,13.54-21.46C577,865.32,630.51,899,693.65,917.63c34.91,10.3,89.14-39.22,140.51-60.15.73-.31,1.47-.6,2.21-.89,40.73-16,79.45-13.08,105,53,0,0,0,0,0,0,.52,1.34,1,2.67,1.56,4,57.25,145.55,93.79,99,186.13,134.26,17.17,6.58,32.56,13.48,42.19,25.85C1261,1188.93,1185.82,1328.08,1084.06,1389.12Z" transform="translate(-423.62 -87.36)"/><path class="cls-3" d="M1101.52,1254.51l3.73-4.93c-1.79-2-184-200.74-602.74-289.79l-1,6.59C918.69,1055.11,1099.74,1252.53,1101.52,1254.51Z" transform="translate(-423.62 -87.36)"/><path class="cls-3" d="M864.61,1009.46c63-50.41,78.7-96.71,79.34-98.65l-5.12-2.49c-.15.46-15.9,46.43-77.26,95.55Z" transform="translate(-423.62 -87.36)"/><path class="cls-3" d="M846.12,1079.14c19.72-30.47,24.22-78.77,13-139.68a516,516,0,0,0-22.9-83.18l-5,2.86c.56,1.45,55.85,145.8,10.51,215.86Z" transform="translate(-423.62 -87.36)"/><path class="cls-1" d="M854.59,705.8c-11.69-21.5-9.54-32.4-2.6-38s16-3.67,27.72,17.83c21.29,39.16,19,68.16,19,68.16S876.19,745.54,854.59,705.8Z" transform="translate(-423.62 -87.36)"/><path class="cls-1" d="M832.88,782.69c-20.8-5-25.67-14.55-24-24.45s9.13-16.44,29.93-11.41C876.66,756,892,778.35,892,778.35S871.33,792,832.88,782.69Z" transform="translate(-423.62 -87.36)"/><ellipse class="cls-2" cx="1226.23" cy="1645.95" rx="1226.23" ry="179.32"/><path class="cls-6" d="M1083.52,369.93S1904.44,726.32,2159,967.12c305.9,289.39-516.2,265-530.24,359.34s843,266.8,843,266.8c-39.56,140-617.57,207.21-1055.79,106.53-169-38.83-393.13-155.63-377-363.74,26.33-340,581.71-233.12,564.15-355.48s-561.65-534.29-561.65-534.29Z" transform="translate(-423.62 -87.36)"/><path class="cls-6" d="M1176.22,328c-63.63-51.91-297.17-108.71-300.68-77.74s117,322.46,148.73,313.42,50-149.44,50-149.44S1210.6,356.06,1176.22,328Z" transform="translate(-423.62 -87.36)"/><path class="cls-7" d="M2379.91,1372.33c3.81,5.26,9.44,17.72,13.18,23.06,1.61,2.32,6.62,10.58,5,12.86-1.43,2-7.94-2.25-10.84-4.73,1.69,20.06-3.13,50.23-9.15,8.52H2378c.29,4.28,1.91,28.13-2.88,26.35-4.23-1.57-6-18.58-6.51-25.63h-.16c.05,7.22-.21,24.64-3.84,21.55-4.56-3.88-6.82-22.48-6.82-22.48s2.47,23.84-3.24,20.15c-3.21-2.08-3.47-15.9-3.53-24.51h0c0-1.8,0-3.38,0-4.57a13.63,13.63,0,0,1,.19-2.66,124.6,124.6,0,0,1,3-23.53s1.22-11.31,11.43-12.38C2372.16,1363.65,2378.25,1370.05,2379.91,1372.33Z" transform="translate(-423.62 -87.36)"/><path class="cls-8" d="M2393.57,1377.51c35.89-28.64,1.22-127.15,16.14-188.34,3.46-14.18,4.95-19.53,7.93-27.42,2.41-6.35-4.07-18.71-13-23.83-8.35-4.79-28.39-1.63-30,1.58-24.17,49-35.76,128.77-23.72,231.4C2351,1370.9,2378.16,1389.8,2393.57,1377.51Z" transform="translate(-423.62 -87.36)"/><path class="cls-9" d="M2450.78,1739.06s-.3,14.77-8.53,18.93-32.07,7.93-23.16,17.43c5.11,5.44,29.2,1.92,36,1.92s13.19,3.61,18.25-1.92c5.56-6.09,0-36.36,0-36.36s-5.87,3.71-11.15,3.54C2454.58,1742.36,2450.78,1739.06,2450.78,1739.06Z" transform="translate(-423.62 -87.36)"/><path class="cls-10" d="M2379.78,1293.32s-1.64,66.65,15.88,194.52c12.64,92.32,27.57,185.34,34.9,229.94,2.62,16,13.66,27.61,26.76,28.25l7,.34c14.16.69,25.65-14.07,24.61-31.63L2471.2,1413l-4.38-99.3Z" transform="translate(-423.62 -87.36)"/><path class="cls-9" d="M2553.46,1736.93s4.73,13.61-1.36,21.53-26.54,23.26-15.2,27.45c6.5,2.41,27.27-12.84,33.47-16.24s13.24-3.32,16-10.88c3-8.33-12.33-33.14-12.33-33.14s-4.09,6.32-9,8.81C2558,1738.05,2553.46,1736.93,2553.46,1736.93Z" transform="translate(-423.62 -87.36)"/><path class="cls-10" d="M2452.52,1299.51s2.86,66.6,28.94,192.29c18.83,90.75,40,182,50.3,225.69,3.68,15.64,15.48,26.17,28.57,25.5l7-.36c14.15-.72,24.61-16.58,22.39-34l-38.06-298.93-11.06-98.53Z" transform="translate(-423.62 -87.36)"/><path class="cls-9" d="M2553.36,1366.37c-.17,8-40.21,11.23-89.73,9.36s-89.1-10.2-88.93-18.24,40-12.76,89.54-10.89S2553.53,1358.32,2553.36,1366.37Z" transform="translate(-423.62 -87.36)"/><path class="cls-8" d="M2541.24,1138.69s-8.76-42.16-73.37-42.58c-93.18-.62-84.55,103.36-93.17,261.38,0,0,91.73-13.78,178.66,8.88C2553.36,1366.37,2561.48,1203.1,2541.24,1138.69Z" transform="translate(-423.62 -87.36)"/><path class="cls-8" d="M2565.09,1132.64l-42.2,28.36s-92.4,10.19-116.93,5.28-31.26-26.78-31.26-26.78,26.12-32.83,70.53-41.6a112.61,112.61,0,0,1,13-1.79,105,105,0,0,1,22.44.54C2536.94,1104.36,2565.09,1132.64,2565.09,1132.64Z" transform="translate(-423.62 -87.36)"/><path class="cls-10" d="M2382.5,1364s53.66-19.18,164.79,7.14l.86,19.42-162.92,7Z" transform="translate(-423.62 -87.36)"/><path class="cls-8" d="M2569.32,1367c-3.88-51.94-31.65-190.55-35.34-198-3-6,2.34-19.15,10.72-25.42,7.87-5.89,18-13.39,20.39-11,33.22,34,58.2,162.66,49.19,231.52Z" transform="translate(-423.62 -87.36)"/><path class="cls-11" d="M2457.43,1007.42a46.5,46.5,0,0,0-6.59,16c-2.14,9.81,14.3-7.49,14.3-7.49Z" transform="translate(-423.62 -87.36)"/><path class="cls-7" d="M2488.85,1098c-6.69,10-18.69,8.59-28.09,3.55-7.55-4-6.47-4-5.43-5.45,2.56-3.64,4.67-4.52,4.82-8.72l.18-5.5,0-.69.24-7.17.42-12.37,1.1-32.54,8.35,32.71,1.42,5.57,4.88,19.12C2478.33,1092.63,2488.8,1097.94,2488.85,1098Z" transform="translate(-423.62 -87.36)"/><path class="cls-9" d="M2473.18,1072.47s-4.31,7.85-12.85,9.36l0-.69.24-7.17C2465.21,1073.43,2473.18,1072.47,2473.18,1072.47Z" transform="translate(-423.62 -87.36)"/><ellipse class="cls-7" cx="2468.73" cy="1041.71" rx="33.95" ry="24.74" transform="translate(347.17 3027.21) rotate(-73.56)"/><path class="cls-12" d="M2464.13,1037.54a.68.68,0,0,1-.17-.49.52.52,0,0,1,.52-.54c.16,0,3.83-.1,5.05,4.85a.64.64,0,0,1-.32.75c-.25.09-.47-.1-.61-.39a8.67,8.67,0,0,0-4.19-4A.44.44,0,0,1,2464.13,1037.54Z" transform="translate(-423.62 -87.36)"/><path class="cls-12" d="M2452.41,1030.39a.47.47,0,0,1-.17-.38.72.72,0,0,1,.39-.68c.13,0,3.16-1.48,4.51,2.56a.78.78,0,0,1-.21.79c-.2.18-.4.08-.53-.13a4.71,4.71,0,0,0-3.74-2.14A.27.27,0,0,1,2452.41,1030.39Z" transform="translate(-423.62 -87.36)"/><path class="cls-6" d="M2467.72,1103.11s-11.36-4.26-14.37-.95-.8,18.45,4.43,19.79S2472.88,1106.76,2467.72,1103.11Z" transform="translate(-423.62 -87.36)"/><path class="cls-10" d="M2461.05,1099.54s14.81-6.36,17.7-12.72,18.24,8.33,18,12.72-27.9,28.73-29.7,25.66S2457.43,1103.7,2461.05,1099.54Z" transform="translate(-423.62 -87.36)"/><path class="cls-10" d="M2461.05,1099.54s-2.22-6.68-1.15-10.31c0,0,.7-3.18-1.55-3s-14.54,10.64-15.63,13.82-1.26,18.09,2.71,19.19,13.55-14.93,14.68-16.51A5.06,5.06,0,0,0,2461.05,1099.54Z" transform="translate(-423.62 -87.36)"/><path class="cls-6" d="M2454.6,1116.1s-39,122.93-36.45,174.45c0,0,2.75,30.07,20.3,46.3,0,0,23.69-18.86,26.87-46.3,2.62-22.54-9-153.18-2.28-171.22Z" transform="translate(-423.62 -87.36)"/><path class="cls-9" d="M2457.86,1122.27h-.09c-3.46-.07-5.33-8.25-5.41-8.6l.55-.15c0,.08,1.84,8.06,4.87,8.12h.08c3.08,0,5.85-3.48,5.88-3.52l.42.42C2464,1118.69,2461.19,1122.27,2457.86,1122.27Z" transform="translate(-423.62 -87.36)"/><path class="cls-9" d="M2485.77,1028a20.07,20.07,0,0,1-20.79.49s-1.09-1.42,1.47-1.74,7-2.73,6.8-4.46-14.26,7-22.67,1c0,0-11.88-7.86-1.25-12.34,6.6-2.78,11.09-26.86,40.78-11.25,4.34,2.29,13.18,8.5,13.3,18.49,0,0,11.65,6.54,7,24.81-6.94,27.49-29.87,25.16-29.87,25.16s13.61-18.63,7.24-19c-8.17-.49-9.82-7.27-5-10.17S2492.18,1027.22,2485.77,1028Z" transform="translate(-423.62 -87.36)"/><path class="cls-7" d="M2487.61,1060.19a5.2,5.2,0,0,1-5.66-5,5.7,5.7,0,0,1,4.71-6.27,5.18,5.18,0,0,1,5.65,5A5.71,5.71,0,0,1,2487.61,1060.19Z" transform="translate(-423.62 -87.36)"/><path class="cls-9" d="M2512.28,1024.85a.59.59,0,0,1-.54-.45,10.67,10.67,0,0,0-7-7.23.64.64,0,0,1-.42-.76.56.56,0,0,1,.67-.47,11.64,11.64,0,0,1,7.86,8.08.67.67,0,0,1-.37.8Z" transform="translate(-423.62 -87.36)"/><path class="cls-9" d="M2504.55,1013a.49.49,0,0,1-.3-.1.69.69,0,0,1-.17-.88c.07-.12,1.56-3-1.59-6.85a.7.7,0,0,1,0-.9.51.51,0,0,1,.79,0c3.76,4.65,1.79,8.24,1.7,8.4A.54.54,0,0,1,2504.55,1013Z" transform="translate(-423.62 -87.36)"/><ellipse class="cls-9" cx="2591.8" cy="1365.59" rx="22.53" ry="13.62" transform="translate(-524.68 124.63) rotate(-4.59)"/><path class="cls-9" d="M2374.14,1357.54c-.08-1.12-7.57-113,19.13-182.23l1,.51c-26.59,69-19.12,180.5-19,181.62Z" transform="translate(-423.62 -87.36)"/><path class="cls-9" d="M2554.45,1257.21c-7-34.9-21.62-59.69-21.77-59.94l.94-.7c.15.24,14.84,25.24,21.92,60.36Z" transform="translate(-423.62 -87.36)"/><path class="cls-12" d="M2450.78,1036.9c-.34,1.19,0,2.4.67,2.7s1.56-.42,1.9-1.6.05-2.4-.66-2.7S2451.13,1035.71,2450.78,1036.9Z" transform="translate(-423.62 -87.36)"/><path class="cls-12" d="M2461.89,1044c-.34,1.19,0,2.4.67,2.7s1.56-.41,1.9-1.6.05-2.39-.66-2.7S2462.24,1042.82,2461.89,1044Z" transform="translate(-423.62 -87.36)"/><path class="cls-13" d="M2472.28,1449.71c-.05-.26-4.68-25.94-9.08-46.25a33.91,33.91,0,0,0-21.36-25.12l.44-1.87a35.84,35.84,0,0,1,22.58,26.53c4.41,20.35,9,46.07,9.1,46.32Z" transform="translate(-423.62 -87.36)"/><path class="cls-9" d="M2578,1456.77l-7-.15.55-33.45c.27-8.48,5.54-15.6,12.53-17l22-4.44c6.44-1.3,12.81,2.43,15.85,9.3l.06.13,14,34.74-6.37,3.27-14-34.67c-1.65-3.67-5-5.68-8.34-5l-22,4.44c-3.77.76-6.62,4.74-6.77,9.47Z" transform="translate(-423.62 -87.36)"/><path class="cls-14" d="M2560.73,1561.81l103.29-8.9c7.27-.63,12.77-8.22,12.31-17l-4.71-88.9c-.49-9.31-7.45-16.14-15.12-14.83l-123.78,21.13c-8.51,1.45-13.65,12.12-10.49,21.75l25.2,76.66C2549.56,1558.23,2554.94,1562.31,2560.73,1561.81Z" transform="translate(-423.62 -87.36)"/><polygon class="cls-9" points="2176.63 1417.25 2176.36 1417.19 2102.5 1400.92 2102.81 1399.12 2176.41 1415.34 2248.59 1376.45 2249.28 1378.11 2176.63 1417.25"/><path class="cls-9" d="M2600,1511.84h0c2.34-.47,3.94-3.17,3.54-6l-.68-5c-.4-2.82-2.63-4.74-5-4.27h0c-2.34.47-3.93,3.17-3.54,6l.69,5C2595.44,1510.39,2597.68,1512.31,2600,1511.84Z" transform="translate(-423.62 -87.36)"/><path class="cls-7" d="M2565.51,1404.2c1.63-3.8,3.42-10.11,5.22-16.13a115.61,115.61,0,0,1,4.26-12.56c.7-1.57,5.33-8.9,16.4-8.82s12.44,5.49,12.44,5.49,4.5,9,8.22,24.14a14.44,14.44,0,0,1,.77,2.78c1.32,7.35,4.3,17.48.6,21.38-4,4.24-6.54-3.07-7.56-7.08.69,3.67,1.51,10.74-1.47,14.74-3.13,4.2-6.71-7.3-8.27-13.14h0c1.1,5.25,2.64,15.43-1.31,18.19-4.67,3.28-8.27-12.37-9.23-16l-.34,0c-2.73,22.26-10,11-11.7-6.13-2.67,3.57-8.74,10-10.7,8.31C2560.53,1417.54,2564.24,1407.17,2565.51,1404.2Z" transform="translate(-423.62 -87.36)"/><path class="cls-3" d="M2453.64,1055.58c-.38,1.56-1.35,2.59-2.18,2.3s-1.2-1.8-.82-3.36,1.34-2.59,2.17-2.3S2454,1054,2453.64,1055.58Z" transform="translate(-423.62 -87.36)"/><path class="cls-7" d="M1525.11,1331c-3.22,6.25-7.29,20.36-10.41,26.7-1.36,2.74-5.39,12.36-3.35,14.39,1.77,1.76,7.92-4,10.58-7.18,1.09,21.17,10.37,51.49,10.71,6.93h.06c.3,4.51,2,29.61,6.72,26.76,4.17-2.51,3.56-20.54,3.13-28l.16,0c1,7.5,3.71,25.54,7,21.57,4.18-5,3.9-24.77,3.9-24.77s.81,25.27,6.21,20.25c3-2.83,1.36-17.24.2-26.19h0c-.25-1.88-.47-3.52-.61-4.76a15.58,15.58,0,0,0-.58-2.72c-2.71-14.81-6.46-23.79-6.46-23.79s-2.88-11.5-13.63-10.47C1531.93,1320.34,1526.51,1328.26,1525.11,1331Z" transform="translate(-423.62 -87.36)"/><path class="cls-14" d="M1517,1334c-38.9-31,2.88-127.13-13.28-193.45-3.75-15.37-5.37-21.17-8.6-29.72-2.61-6.88,4.41-20.28,14.06-25.82,9-5.2,30.77-1.77,32.48,1.71,26.2,53.08,34.66,140.22,21.61,251.45C1563.26,1338.17,1533.68,1347.32,1517,1334Z" transform="translate(-423.62 -87.36)"/><path class="cls-9" d="M1459.19,1736.51s.33,16,9.25,20.52,34.76,8.59,25.1,18.89c-5.54,5.9-31.65,2.09-39,2.09s-14.3,3.9-19.77-2.09c-6-6.6,0-39.41,0-39.41s6.36,4,12.08,3.85C1455.07,1740.1,1459.19,1736.51,1459.19,1736.51Z" transform="translate(-423.62 -87.36)"/><path class="cls-10" d="M1536.14,1253.42s1.78,72.24-17.21,210.83c-13.7,100-29.88,200.86-37.82,249.2-2.84,17.29-14.81,29.93-29,30.62l-7.62.37c-15.35.75-27.8-15.26-26.68-34.29l19.26-327,4.74-107.62Z" transform="translate(-423.62 -87.36)"/><path class="cls-9" d="M1374.72,1736.51s.33,16,9.25,20.52,34.76,8.59,25.1,18.89c-5.54,5.9-31.65,2.09-39,2.09s-14.3,3.9-19.78-2.09c-6-6.6,0-39.41,0-39.41s6.37,4,12.09,3.85C1370.6,1740.1,1374.72,1736.51,1374.72,1736.51Z" transform="translate(-423.62 -87.36)"/><path class="cls-10" d="M1451.67,1253.42s1.78,72.24-17.21,210.83c-13.7,100-29.88,200.86-37.82,249.2-2.84,17.29-14.81,29.93-29,30.62l-7.62.37c-15.35.75-27.8-15.26-26.68-34.29l19.26-327,4.74-107.62Z" transform="translate(-423.62 -87.36)"/><path class="cls-9" d="M1348,1332.59c.18,8.72,43.58,12.18,97.25,10.15s96.57-11,96.38-19.77-43.37-13.83-97-11.8S1347.83,1323.88,1348,1332.59Z" transform="translate(-423.62 -87.36)"/><path class="cls-14" d="M1361.15,1085.84s9.5-45.69,79.52-46.15c101-.67,91.64,112,101,283.28,0,0-99.47-17.08-193.68,7.48C1348,1330.45,1339.23,1155.64,1361.15,1085.84Z" transform="translate(-423.62 -87.36)"/><path class="cls-14" d="M1335.31,1079.29,1381,1110s100.15,11,126.73,5.72,33.88-29,33.88-29-28.31-35.58-76.44-45.08a122,122,0,0,0-14.07-2,114.19,114.19,0,0,0-24.33.59C1365.81,1048.63,1335.31,1079.29,1335.31,1079.29Z" transform="translate(-423.62 -87.36)"/><path class="cls-10" d="M1533.2,1330s-58.16-20.78-178.6,7.75l-.93,21,176.56,7.58Z" transform="translate(-423.62 -87.36)"/><path class="cls-14" d="M1326.54,1330.45c4.21-56.29,38.49-203.65,42.48-211.72,3.22-6.49-2.54-20.75-11.62-27.55-8.52-6.38-19.54-14.51-22.09-11.89-36,36.85-67,171.54-57.21,246.17Z" transform="translate(-423.62 -87.36)"/><path class="cls-7" d="M1417.94,1041.69c7.24,10.84,20.25,9.31,30.44,3.85,8.18-4.4,7-4.31,5.88-5.91-2.77-4-5.06-4.9-5.21-9.45l-.2-6,0-.74-.26-7.77-.45-13.41L1446.92,967l-9.05,35.46-1.54,6-5.29,20.73C1429.34,1035.92,1418,1041.67,1417.94,1041.69Z" transform="translate(-423.62 -87.36)"/><path class="cls-9" d="M1435.24,1013.81s4.35,8.76,13.61,10.4l0-.74-.26-7.77C1443.56,1015.12,1435.24,1013.81,1435.24,1013.81Z" transform="translate(-423.62 -87.36)"/><path class="cls-6" d="M1494.52,1250.4s-2.92,32.57-22,50.18a91.56,91.56,0,0,1-20.43-24.81,65,65,0,0,1-8.67-25.37c-.46-4.32-.55-12.3-.36-22.6.27-8.31.73-18.17,1.18-28.91.82-18.84,2-40.22,2.83-60.38.46-11.08.82-21.83,1-31.46.37-20.5-.09-36.56-2.19-42.21l9.13-3.44s3.92,12.3,9.3,31c2,7.2,4.29,15.29,6.66,23.93,3.65,13.85,7.57,29.25,11.13,44.76,1.91,8.53,3.83,17.17,5.38,25.59,3.38,17.39,5.93,34,6.75,48A114,114,0,0,1,1494.52,1250.4Z" transform="translate(-423.62 -87.36)"/><path class="cls-9" d="M1278.1,1325.46c-.29,8.15,10.39,15.46,23.84,16.32s24.59-5.06,24.88-13.21-10.39-15.46-23.85-16.31S1278.38,1317.31,1278.1,1325.46Z" transform="translate(-423.62 -87.36)"/><path class="cls-9" d="M1542.26,1323l-1.21-.11c.08-1.21,8.17-122.08-20.65-196.84l1.12-.54C1550.46,1200.61,1542.35,1321.81,1542.26,1323Z" transform="translate(-423.62 -87.36)"/><path class="cls-9" d="M1346.84,1214.29l-1.19-.3c7.68-38.07,23.61-65.16,23.77-65.43l1,.77C1370.27,1149.6,1354.46,1176.48,1346.84,1214.29Z" transform="translate(-423.62 -87.36)"/><path class="cls-9" d="M1457.55,944.53a52.94,52.94,0,0,1,5.27,18.26c1.2,10.89-14.52-10.44-14.52-10.44Z" transform="translate(-423.62 -87.36)"/><ellipse class="cls-7" cx="1441.52" cy="979.51" rx="26.49" ry="37.24" transform="translate(-606.28 260.11) rotate(-12.93)"/><path class="cls-9" d="M1414.78,983.72l11.42-6.54a10.87,10.87,0,0,0,5-7.44c1.09-5.65,3.33-9.27,14.54-13.48,14.18-5.33,20.5-19.41,19.44-29-1.08-9.74-10-12.84-15.81-5.51s-5.83-4.58-12.92-2.82c-13.24,3.28-12.19,16.12-22.65,20.14-13.71,5.28-34.39,28.16-14.48,52.25Z" transform="translate(-423.62 -87.36)"/><path class="cls-12" d="M1444,975.32a.76.76,0,0,0,.1-.56.53.53,0,0,0-.64-.46c-.16.06-4.09.83-4.58,6.4a.63.63,0,0,0,.46.71c.29.05.49-.22.59-.55a10.42,10.42,0,0,1,3.8-5.32A.53.53,0,0,0,1444,975.32Z" transform="translate(-423.62 -87.36)"/><path class="cls-12" d="M1444.06,984c.71,1.26,1.9,1.76,2.65,1.14s.78-2.16.06-3.41-1.9-1.77-2.65-1.14S1443.34,982.72,1444.06,984Z" transform="translate(-423.62 -87.36)"/><path class="cls-12" d="M1460.39,964.89a.54.54,0,0,0,.13-.44.72.72,0,0,0-.5-.66c-.14,0-3.57-1-4.52,3.58a.82.82,0,0,0,.32.8c.24.16.44,0,.55-.23a5.43,5.43,0,0,1,3.76-3A.34.34,0,0,0,1460.39,964.89Z" transform="translate(-423.62 -87.36)"/><path class="cls-12" d="M1458.51,973.36c.42,1.43,1.45,2.3,2.31,1.93s1.22-1.83.8-3.27-1.45-2.3-2.31-1.93S1458.09,971.92,1458.51,973.36Z" transform="translate(-423.62 -87.36)"/><path class="cls-9" d="M1399.36,991.37s14.38,18,26.44,14.59c0,0-14.11-12.35,2.8-30.75C1428.6,975.21,1409.43,979.49,1399.36,991.37Z" transform="translate(-423.62 -87.36)"/><path class="cls-7" d="M1419.14,996.23a5.32,5.32,0,0,0,6.65-4.41,6.56,6.56,0,0,0-4.36-7.53,5.32,5.32,0,0,0-6.64,4.42A6.55,6.55,0,0,0,1419.14,996.23Z" transform="translate(-423.62 -87.36)"/><path class="cls-6" d="M1461.12,925.4a4.25,4.25,0,0,1-4-3.53.68.68,0,0,1,.45-.82.6.6,0,0,1,.73.5h0a3,3,0,0,0,3.83,2.35.62.62,0,0,1,.72.53.7.7,0,0,1-.47.82A5.56,5.56,0,0,1,1461.12,925.4Z" transform="translate(-423.62 -87.36)"/><path class="cls-3" d="M1448.37,949.79l-.22-.33c.14-.11,13.49-11.83,11.41-21.42-.6-2.77-1.5-4.38-2.74-4.91-1.9-.82-4.33,1-6.47,2.71l-1,.75-.2-.35c.32-.23.64-.49,1-.74,2.22-1.72,4.74-3.66,6.81-2.76,1.37.59,2.33,2.29,3,5.2.88,4.09-.84,9.17-5,14.69A50.9,50.9,0,0,1,1448.37,949.79Z" transform="translate(-423.62 -87.36)"/><path class="cls-3" d="M1409,944.94l-.08-.4a27.49,27.49,0,0,0,19.41-16.86l.35.14A27.88,27.88,0,0,1,1409,944.94Z" transform="translate(-423.62 -87.36)"/><path class="cls-7" d="M1317.64,1331.09c4.42,5.06,11.31,17.45,15.65,22.62,1.88,2.24,7.79,10.3,6.24,12.89-1.34,2.24-8.5-1.43-11.73-3.68,3.37,20.81.72,53-8.91,10l-.06,0c.65,4.46,4.26,29.26-.91,28-4.56-1.15-7.74-18.77-8.87-26.09h-.16c.62,7.56,1.75,25.85-2.31,23-5.08-3.54-8.94-22.75-8.94-22.75s4.49,24.68-1.78,21.49c-3.54-1.8-4.91-16.25-5.66-25.27h0c-.16-1.89-.29-3.55-.4-4.79a14.67,14.67,0,0,1,0-2.81,132.87,132.87,0,0,1,1.28-25s.38-12,11-14.32C1308.82,1322.91,1315.72,1328.9,1317.64,1331.09Z" transform="translate(-423.62 -87.36)"/><path class="cls-9" d="M1431.19,1490.7l-.78-.16c.17-1,17.24-101.8,20.92-117.61,3.73-16,17.3-19.78,17.43-19.82l.18.87c-.13,0-13.24,3.66-16.85,19.18C1448.42,1388.94,1431.36,1489.69,1431.19,1490.7Z" transform="translate(-423.62 -87.36)"/><path class="cls-15" d="M1448.09,1107.05c.37-20.5-.09-36.56-2.19-42.21l9.13-3.44s3.92,12.3,9.3,31C1458.86,1097.19,1453,1102.39,1448.09,1107.05Z" transform="translate(-423.62 -87.36)"/><path class="cls-15" d="M1482.12,1161.11c-12.86,12.07-31,29.47-37.86,37.78.82-18.84,2-40.22,2.83-60.38l23.9-22.16C1474.64,1130.2,1478.56,1145.6,1482.12,1161.11Z" transform="translate(-423.62 -87.36)"/><path class="cls-15" d="M1494.25,1234.67c-11.58,11.08-30,28.69-42.14,41.1a65,65,0,0,1-8.67-25.37c-.46-4.32-.55-12.3-.36-22.6l44.42-41.1C1490.88,1204.09,1493.43,1220.71,1494.25,1234.67Z" transform="translate(-423.62 -87.36)"/><path class="cls-6" d="M1440.84,1047.28s12.3-4.62,15.57-1,.87,20-4.8,21.46S1435.24,1051.24,1440.84,1047.28Z" transform="translate(-423.62 -87.36)"/><path class="cls-16" d="M1448.07,1043.41s-16.06-6.9-19.19-13.79-19.76,9-19.47,13.79,30.23,31.14,32.19,27.81S1452,1047.92,1448.07,1043.41Z" transform="translate(-423.62 -87.36)"/><path class="cls-16" d="M1448.07,1043.41s2.4-7.24,1.24-11.17c0,0-.76-3.45,1.69-3.21s15.75,11.52,16.93,15,1.37,19.61-2.94,20.8-14.69-16.18-15.91-17.89A5.47,5.47,0,0,1,1448.07,1043.41Z" transform="translate(-423.62 -87.36)"/><path class="cls-9" d="M1451.52,1068.05c-3.61,0-6.69-3.88-6.82-4l.45-.45s3,3.81,6.37,3.81h.09c3.28-.07,5.26-8.71,5.28-8.8l.59.17c-.09.38-2.12,9.24-5.86,9.32Z" transform="translate(-423.62 -87.36)"/><path class="cls-3" d="M1455.75,997.78c0,2.08.93,3.76,2.08,3.76s2.09-1.68,2.09-3.76-.93-3.75-2.09-3.75S1455.75,995.71,1455.75,997.78Z" transform="translate(-423.62 -87.36)"/><path class="cls-8" d="M1994.75,517.39c-25.64-57.29-124.77-130-155.14-124.06-6.53,1.29,36.3-99.92,50.75-89.61,50,35.65,124.23,114.24,142.57,171.48Z" transform="translate(-423.62 -87.36)"/><path class="cls-9" d="M2005.07,483.64c12.25-17.23,23.48-14.86,27.86-8.44s-1,20.61-12,31.69-21.82,16.92-26.2,10.5S1995.73,496.78,2005.07,483.64Z" transform="translate(-423.62 -87.36)"/><path class="cls-7" d="M2006.82,505.32c-.08,7.12,2.38,21.26,2.41,28.38,0,3.09.66,13.49,3.18,13.92,2.19.38,4.89-8.12,5.78-12.36,9.63,16.82,29.8,36.2,11.69-.8l0,0c2.11,3.54,13.86,23.23,16.59,18,2.41-4.61-5.53-19.12-9-25l.12-.13c3.9,5.6,13.59,18.83,14.71,13.52,1.39-6.66-7-22.82-7-22.82s11.09,20.37,13.48,12.94c1.35-4.19-6-15.06-10.64-21.74h0c-1-1.41-1.84-2.63-2.47-3.56a10.42,10.42,0,0,0-1.6-1.89C2035.83,493.17,2029,488,2029,488s-7.12-7.74-15.57-.35C2008.06,492.4,2006.85,502.23,2006.82,505.32Z" transform="translate(-423.62 -87.36)"/><path class="cls-9" d="M1780.56,912.62s5.59,17-2.12,26.65-33.38,28.05-19.41,33.6c8,3.18,34.08-15.12,41.84-19.15s16.49-3.71,20-13c3.89-10.23-14.62-41.45-14.62-41.45s-5.2,7.71-11.28,10.65C1786.22,914.14,1780.56,912.62,1780.56,912.62Z" transform="translate(-423.62 -87.36)"/><path class="cls-9" d="M2004.33,982.85s.82,18.3-9,24.43-39,13.63-27.24,24.3c6.77,6.13,36.27-1.1,44.68-1.91s16.6,2.88,22.41-4.56c6.38-8.18-2.94-45-2.94-45s-7,5.3-13.5,5.72C2009.29,986.48,2004.33,982.85,2004.33,982.85Z" transform="translate(-423.62 -87.36)"/><path class="cls-10" d="M1818.58,560.94s-33.08-21.4,15.4,103.64c35,90.26,109.47,251.08,146.6,306.55,9,13.49,22.36,23.35,38.24,19.17l8.53-2.25c17.17-4.52,27.82-24,22.81-41.63L1923.85,540.36s-7.9-11.39-51.91-5.71C1818,541.61,1818.58,560.94,1818.58,560.94Z" transform="translate(-423.62 -87.36)"/><path class="cls-10" d="M1772.91,569.37s-66.2,59.64-83.36,137.37c-19.5,88.29,65.89,206,86.26,215.08,13.3,5.92,23.87,0,38.93-31.74,9-19-34.82-127.28-21.09-164.53,16.61-45.06,97.91-82.33,97.91-82.33l-7.87-116S1823.85,543,1772.91,569.37Z" transform="translate(-423.62 -87.36)"/><path class="cls-8" d="M1915,334.72s-11.75-47.92-86-44.59c-57.19,2.56-89.2,11.75-96.14,57.8-2.46,16.35-8.33,77,22.34,238.33,0,0,100.9,53.18,195.08-4.91,0,0-14.37-86.12-31.39-218.49C1917.47,351.68,1918,343.14,1915,334.72Z" transform="translate(-423.62 -87.36)"/><path class="cls-6" d="M1812.22,310.73c3.58,15.79,30.19,129,176.56,86a39.39,39.39,0,0,1,27.37,1.9l24.14,10.74c3.06,1.37,4.12,6,2.08,9.06l-14.5,21.93c-9.29,14.07-22.26,23.85-36.75,27.8-30.37,8.25-84.62,16.43-130.45-11.67-54.42-33.37-61.47-113.28-62.14-143.54-.1-4.88,4.5-7.72,7.68-4.74h0C1807,309,1812,309.52,1812.22,310.73Z" transform="translate(-423.62 -87.36)"/><path class="cls-7" d="M1826.73,278.47l-4-22.86-1.16-6.65-6.8-39.13-4.16,37.69-2.49,22.63-.79,7.16c-.53,4.86-3.06,5.61-6.37,9.52-1.33,1.58-9.85,11.13-1.44,16.82,10.48,7.09,31.58.5,40.23-10.25C1839.71,293.37,1828,285.85,1826.73,278.47Z" transform="translate(-423.62 -87.36)"/><path class="cls-9" d="M1823.82,261.74s-6.88,8-15.68,8.41l1.16-9.23Z" transform="translate(-423.62 -87.36)"/><path class="cls-11" d="M1790.9,192.75a60.13,60.13,0,0,0-1.57,20.75c1.1,11.76,12.92-15.53,12.92-15.53Z" transform="translate(-423.62 -87.36)"/><path class="cls-7" d="M1787.92,216.7c4.11-22,19.65-36.57,34.71-32.43s23.93,25.37,19.82,47.42-19.65,36.57-34.71,32.43S1783.81,238.75,1787.92,216.7Z" transform="translate(-423.62 -87.36)"/><path class="cls-9" d="M1844,220.1l-13.34-3.21a10.25,10.25,0,0,1-6.87-6.17c-2.36-5.56-5.48-8.62-18.09-9.46-16-1.06-25.6-13.76-26.55-24.07-1-10.52,7.7-16.6,15.32-10.78s5.11-6.64,12.89-7.06c14.55-.78,16.22,13,28,13.85,15.46,1.16,42,18.49,26.39,50Z" transform="translate(-423.62 -87.36)"/><path class="cls-12" d="M1813.55,222.16a.53.53,0,0,1-.46-.27.79.79,0,0,1,.09-1,5.37,5.37,0,0,1,7.5-.6.78.78,0,0,1,.21.94.56.56,0,0,1-.78.25,8.18,8.18,0,0,0-6.23.49A.52.52,0,0,1,1813.55,222.16Z" transform="translate(-423.62 -87.36)"/><path class="cls-12" d="M1793.12,216.85c-.12-.09-.16-.29-.12-.57a1.65,1.65,0,0,1,.71-1.13c.18-.1,4.55-2.83,5.15,3.3a1.79,1.79,0,0,1-.5,1.27c-.32.32-.55.19-.66-.11a4.08,4.08,0,0,0-4.27-2.76A.27.27,0,0,1,1793.12,216.85Z" transform="translate(-423.62 -87.36)"/><path class="cls-12" d="M1797.74,225.55c0,1.64-.71,3-1.69,3s-1.82-1.26-1.86-2.9.72-3,1.7-3.05S1797.7,223.9,1797.74,225.55Z" transform="translate(-423.62 -87.36)"/><path class="cls-11" d="M1861.79,223.18s-11.15,23.34-24.48,23.65c0,0,12.08-17.38-9.55-31.23C1827.76,215.6,1848.71,214,1861.79,223.18Z" transform="translate(-423.62 -87.36)"/><path class="cls-7" d="M1842.17,234.55a5.26,5.26,0,0,1-7.89-2.49,7.72,7.72,0,0,1,2.92-9.25,5.28,5.28,0,0,1,7.9,2.5A7.71,7.71,0,0,1,1842.17,234.55Z" transform="translate(-423.62 -87.36)"/><path class="cls-9" d="M1797,165a5.12,5.12,0,0,1-.85-.07l.1-.88a3.63,3.63,0,0,0,4.26-3.14l.78.15C1801.23,161.12,1800.59,165,1797,165Z" transform="translate(-423.62 -87.36)"/><path class="cls-3" d="M1801.62,195.33a49.37,49.37,0,0,1-8.4-5.4c-5.52-4.46-8.41-9.22-8.37-13.77,0-3.27.69-5.36,2-6.4,2-1.55,5-.33,7.68.75l1.18.47-.13.42-1.19-.47c-2.57-1-5.49-2.22-7.31-.8-1.2.94-1.8,2.92-1.83,6-.11,10.68,16.36,18.68,16.53,18.75Z" transform="translate(-423.62 -87.36)"/><path class="cls-3" d="M1840,177.79a27.1,27.1,0,0,1-16.85-5.53,23.51,23.51,0,0,1-5.71-6.16l.34-.24c.07.12,7.18,12.29,23.9,11.44l0,.44C1841.15,177.77,1840.58,177.79,1840,177.79Z" transform="translate(-423.62 -87.36)"/><path class="cls-3" d="M1795.08,243.43s1.08,8.11,8.23,8.62a9.17,9.17,0,0,0,9.66-6.48S1802.57,247.19,1795.08,243.43Z" transform="translate(-423.62 -87.36)"/><path class="cls-9" d="M1820.46,229.28a.48.48,0,0,1-.27-.09c-3.29-2.24-7.84-1-7.89-1a.53.53,0,0,1-.64-.44.6.6,0,0,1,.38-.72c.21-.06,5-1.39,8.7,1.11a.64.64,0,0,1,.18.82A.52.52,0,0,1,1820.46,229.28Z" transform="translate(-423.62 -87.36)"/><path class="cls-6" d="M1815.94,297.79s-13.21-4.23-16.55-.25-.17,21.25,5.89,22.49S1822,301.68,1815.94,297.79Z" transform="translate(-423.62 -87.36)"/><path class="cls-9" d="M1805.2,320.39c-3.92,0-6.37-9.16-6.47-9.56l.62-.2c0,.09,2.41,9,5.85,9h.07c3.58-.11,6.67-4.35,6.7-4.39l.5.46c-.13.19-3.31,4.54-7.19,4.66Z" transform="translate(-423.62 -87.36)"/><path class="cls-9" d="M1809.53,553.32c1.28,2.35,3.88,3,5.81,1.45a5.8,5.8,0,0,0,1.19-7.06c-1.28-2.35-3.6-3.64-5.53-2.09A5.91,5.91,0,0,0,1809.53,553.32Z" transform="translate(-423.62 -87.36)"/><path class="cls-9" d="M1800.85,478.23c.9,2.59,3.37,3.8,5.5,2.69s3.12-4.09,2.21-6.68-3-4.37-5.13-3.27C1800.42,472.53,1799.94,475.65,1800.85,478.23Z" transform="translate(-423.62 -87.36)"/><path class="cls-9" d="M1792.4,402.31c.91,2.58,3.37,3.79,5.5,2.69s3.13-4.1,2.22-6.68-3-4.38-5.13-3.27C1792,396.61,1791.5,399.72,1792.4,402.31Z" transform="translate(-423.62 -87.36)"/><path class="cls-8" d="M1795.08,290c-38.89.05-73.2,26.46-83.78,14.65-2.5-2.78,10.7-95.93,10.7-95.93l-32,1.26s-62.09,120.35-30,160c39.36,48.6,97.12,19,97.12,19S1815,289.94,1795.08,290Z" transform="translate(-423.62 -87.36)"/><path class="cls-9" d="M1780.5,236.7l-78.72-17.48c-4-.9-6.67-5.57-5.94-10.44l1.56-10.32c.73-4.87,4.58-8.1,8.59-7.21l78.72,17.49c4,.89,6.67,5.56,5.93,10.43l-1.55,10.32C1788.35,234.36,1784.51,237.59,1780.5,236.7Z" transform="translate(-423.62 -87.36)"/><path class="cls-10" d="M1730.16,235.63l-76-16.87c-5.24-1.16-8.72-7.27-7.76-13.65l3.47-23.06c1-6.37,6-10.59,11.24-9.42l76,16.87c5.25,1.16,8.72,7.27,7.76,13.65l-3.47,23.06C1740.44,232.58,1735.41,236.8,1730.16,235.63Z" transform="translate(-423.62 -87.36)"/><path class="cls-6" d="M1667.3,228.32l-120.48-26.76c-4.31-.95-7.15-6-6.37-11.19l6-40.08c.79-5.23,4.91-8.69,9.21-7.73l120.48,26.76c4.3,1,7.15,6,6.37,11.18l-6,40.09C1675.72,225.82,1671.6,229.28,1667.3,228.32Z" transform="translate(-423.62 -87.36)"/><path class="cls-9" d="M1539.43,204.59l-6-1.32c-3.3-.74-5.48-4.58-4.88-8.58l8.21-54.51c.6-4,3.77-6.66,7.06-5.93l6,1.33c3.29.73,5.48,4.57,4.87,8.58l-8.21,54.51C1545.89,202.68,1542.73,205.33,1539.43,204.59Z" transform="translate(-423.62 -87.36)"/><path class="cls-7" d="M1706.73,173.61s-8.1-4.34-11.31,4.67c-4.08,11.48-.11,30.55,2.56,23.32a79.37,79.37,0,0,0,3.45-13.72s-3.21,22.93,1.45,22,7.41-19.55,7.41-19.55-1.47,21.94,2.7,19.37,6.29-15.63,6.29-15.63-2.07,17.71,2.72,14.58,4.06-16.28,4.8-21.93c.7-5.35-1.91-7.63-6.21-8.07,0,0-4.06-3.47-6.93-2.9-1.09.22-2-1.19-2.73-1.44A23,23,0,0,0,1706.73,173.61Z" transform="translate(-423.62 -87.36)"/><path class="cls-9" d="M1838.94,675.2a.73.73,0,0,1-.66-.49c-10.53-28.51-33.68-31.84-33.91-31.87a.77.77,0,0,1-.62-.88.72.72,0,0,1,.78-.7c.24,0,24.21,3.47,35.06,32.83a.85.85,0,0,1-.38,1A.66.66,0,0,1,1838.94,675.2Z" transform="translate(-423.62 -87.36)"/><path class="cls-9" d="M1731,397.58h0a.75.75,0,0,1-.7-.8c.21-30.25,1.91-48.75,1.93-48.93a.73.73,0,0,1,.78-.71.78.78,0,0,1,.63.88c0,.18-1.71,18.61-1.93,48.77A.75.75,0,0,1,1731,397.58Z" transform="translate(-423.62 -87.36)"/><path class="cls-10" d="M1808.14,294.08s16.77-8.18,19.83-15.66,21.28,8.5,21.15,13.55-33.61,34.94-35.81,31.52S1804.15,299.08,1808.14,294.08Z" transform="translate(-423.62 -87.36)"/><path class="cls-10" d="M1808.14,294.08s-2.81-7.54-1.73-11.77c0,0,.68-3.7-1.91-3.32s-16.27,13.08-17.39,16.8-.73,20.87,3.88,21.89,15-17.95,16.2-19.83A5.92,5.92,0,0,0,1808.14,294.08Z" transform="translate(-423.62 -87.36)"/><path class="cls-7" d="M1246.85,1028.39c5.22-8.9-21.94-39.05-21.94-39.05-2.71-1.54-36.25,53.29-84.88,45.34-17.32-2.83-45-32.89-47.41-37.73-.32-.64-34.15,22.89-34.15,22.89,4.31,8.75,7.62,42.06,28.12,58.05C1129,1111,1193.3,1101.8,1246.85,1028.39Z" transform="translate(-423.62 -87.36)"/><path class="cls-9" d="M1063.67,1654.33s.66,15.36,9.32,19.41,33.56,7.16,24.51,17.34c-5.2,5.85-30.35,3-37.43,3.24s-13.64,4.19-19-1.39c-5.93-6.14-.84-37.83-.84-37.83s6.19,3.66,11.68,3.31C1059.8,1657.9,1063.67,1654.33,1063.67,1654.33Z" transform="translate(-423.62 -87.36)"/><path class="cls-10" d="M1126.06,1228.72s4.44,28.71-10.83,162.35c-11,96.48-24.41,193.78-31,240.43-2.36,16.69-13.58,29.2-27.19,30.31l-7.31.6c-14.72,1.2-27-13.78-26.34-32.08l11.51-314.53,2.26-103.48Z" transform="translate(-423.62 -87.36)"/><path class="cls-9" d="M982.58,1657s.66,15.36,9.32,19.41,33.55,7.15,24.5,17.34c-5.19,5.84-30.34,3-37.42,3.23s-13.64,4.2-19-1.38c-5.93-6.14-.84-37.83-.84-37.83s6.19,3.66,11.68,3.31C978.7,1660.56,982.58,1657,982.58,1657Z" transform="translate(-423.62 -87.36)"/><path class="cls-10" d="M1046.15,1190.78s3.25,69.3-12,203c-11,96.48-24.41,193.77-31,240.43-2.35,16.68-13.58,29.2-27.19,30.31l-7.31.59c-14.71,1.2-27-13.77-26.34-32.08l11.52-314.53L956.07,1215Z" transform="translate(-423.62 -87.36)"/><path class="cls-9" d="M948.33,1270.05c.36,8.36,45.51-9.89,97-13.53s85.87-24.74,85.51-33.1-38-5.2-89.54-1.56S948,1261.69,948.33,1270.05Z" transform="translate(-423.62 -87.36)"/><path class="cls-15" d="M927.77,1035.37s2.75-45.13,68.93-59.64c95.45-20.94,102,87.55,134.14,247.69,0,0-96.62,3.53-182.4,45.7C948.44,1269.12,916.53,1105.81,927.77,1035.37Z" transform="translate(-423.62 -87.36)"/><path class="cls-15" d="M902.42,1034.37l47.46,19.88s96.24-9.69,120.67-20.06,28.09-34.27,28.09-34.27-31.64-28-78.46-27.28a116.23,116.23,0,0,0-36.51,6.43C927.1,999.23,902.42,1034.37,902.42,1034.37Z" transform="translate(-423.62 -87.36)"/><path class="cls-7" d="M986.17,967.77l2.18-20.66.63-6,3.72-35.37,5.94,33.14,3.56,19.89,1.13,6.29c.76,4.28,3,4.72,6.22,7.9,1.28,1.29,9.42,9,2.28,14.83-8.89,7.22-28,3.21-36.36-5.59C975.52,982.16,985.47,974.45,986.17,967.77Z" transform="translate(-423.62 -87.36)"/><path class="cls-10" d="M1126.06,1228.72s-42.92-2.59-171.24,43.5l-.5,22.82,169.67,1.73Z" transform="translate(-423.62 -87.36)"/><path class="cls-9" d="M901.69,1035.77c-2.76,7.08,4.44,18.38,16.08,25.25s23.31,6.68,26.07-.4-4.44-18.39-16.07-25.25S904.45,1028.69,901.69,1035.77Z" transform="translate(-423.62 -87.36)"/><path class="cls-7" d="M926.21,1290.94c-3.69-54.1-5.52-132.18,6.71-196.93,2.83-15,4.09-20.67,6.77-29.11,2.16-6.78-5.23-19.12-14.75-23.72-8.93-4.33-21.34-.67-22.9,2.74-2.64,5.8-4.84,16.3-8.22,33-11.75,57.87-13.43,129.76-5.27,220.25Z" transform="translate(-423.62 -87.36)"/><path class="cls-9" d="M1006.63,884a50.88,50.88,0,0,1,5.23,17.47c1.24,10.45-14-9.84-14-9.84Z" transform="translate(-423.62 -87.36)"/><ellipse class="cls-7" cx="991.55" cy="917.75" rx="25.46" ry="35.73" transform="translate(-607.53 164.25) rotate(-13.25)"/><path class="cls-9" d="M965.91,922.15l10.91-6.43a10.5,10.5,0,0,0,4.77-7.21c1-5.44,3.12-9,13.84-13.14,13.57-5.3,19.51-18.91,18.41-28.06-1.12-9.33-9.74-12.19-15.23-5.08s-5.64-4.32-12.43-2.54c-12.69,3.32-11.57,15.64-21.57,19.65-13.12,5.25-32.78,27.49-13.45,50.36Z" transform="translate(-423.62 -87.36)"/><path class="cls-12" d="M992.35,915.77a.71.71,0,0,0,.09-.54.5.5,0,0,0-.62-.43c-.16.06-3.93.85-4.34,6.2a.61.61,0,0,0,.45.68c.27,0,.46-.22.56-.54a9.93,9.93,0,0,1,3.6-5.15A.51.51,0,0,0,992.35,915.77Z" transform="translate(-423.62 -87.36)"/><path class="cls-12" d="M992.51,924.08c.69,1.19,1.84,1.67,2.55,1s.73-2.08,0-3.27-1.84-1.67-2.56-1.06S991.81,922.88,992.51,924.08Z" transform="translate(-423.62 -87.36)"/><path class="cls-12" d="M1009.4,906.3a.49.49,0,0,0,.18-.4.75.75,0,0,0-.42-.7c-.14,0-3.32-1.44-4.64,2.81a.8.8,0,0,0,.23.81c.21.18.42.07.55-.15a5,5,0,0,1,3.85-2.34A.27.27,0,0,0,1009.4,906.3Z" transform="translate(-423.62 -87.36)"/><path class="cls-12" d="M1006.85,914.12c.26,1.43,1.17,2.39,2,2.16s1.32-1.59,1-3-1.17-2.39-2-2.15S1006.58,912.69,1006.85,914.12Z" transform="translate(-423.62 -87.36)"/><path class="cls-9" d="M951.16,929.7s14,17.06,25.53,13.66c0,0-13.66-11.67,2.41-29.56C979.1,913.8,960.73,918.16,951.16,929.7Z" transform="translate(-423.62 -87.36)"/><path class="cls-7" d="M970.21,934.11a5.14,5.14,0,0,0,6.34-4.33,6.24,6.24,0,0,0-4.25-7.16,5.13,5.13,0,0,0-6.34,4.32A6.27,6.27,0,0,0,970.21,934.11Z" transform="translate(-423.62 -87.36)"/><path class="cls-9" d="M979.1,913.8s3.64,17.89,7.5,19.87,23.34-5,31-13.14h0c3.46,11,0,23.59-8.46,29.39a25.54,25.54,0,0,1-9.11,4h0c-6.62,1.43-13.61,1-18.28-4.9-1.42-1.79-3.08-15.92-3.08-15.92s-1.46-8.09-6.35-10.46C972.3,922.62,975.17,916.08,979.1,913.8Z" transform="translate(-423.62 -87.36)"/><path class="cls-9" d="M995.07,861.89c-2.29,0-3.25-2.39-3.26-2.42l.64-.32a2.93,2.93,0,0,0,4.25,1.52l.28.73A4.35,4.35,0,0,1,995.07,861.89Z" transform="translate(-423.62 -87.36)"/><path class="cls-3" d="M997.87,889.13l-.22-.32a48.94,48.94,0,0,0,6.19-6.91c2.68-3.66,5.66-9,4.57-13.81-.6-2.65-1.47-4.18-2.66-4.68-1.84-.77-4.15,1.07-6.2,2.69l-.93.73-.2-.33.93-.73c2.11-1.67,4.51-3.57,6.52-2.74,1.31.55,2.25,2.17,2.89,5C1010.89,877.42,998.4,888.65,997.87,889.13Z" transform="translate(-423.62 -87.36)"/><path class="cls-3" d="M960,885l-.08-.39a26.54,26.54,0,0,0,18.48-16.44l.33.13A26.92,26.92,0,0,1,960,885Z" transform="translate(-423.62 -87.36)"/><path class="cls-3" d="M1013.67,929.55a41.82,41.82,0,0,1-13.76,5.75s2.73,7.75,9.82,3.79C1013.84,936.79,1013.67,929.55,1013.67,929.55Z" transform="translate(-423.62 -87.36)"/><path class="cls-7" d="M908.6,1273.23h0a8.74,8.74,0,0,0,.88,10.62l22.36,22c2.64,2.62,14.41,10.14,16.58,6.93h0c2.16-3.22-5.1-14.09-7.43-17.12-5.38-7-13.68-23.54-19.17-30.42C919.44,1262.22,910.77,1270,908.6,1273.23Z" transform="translate(-423.62 -87.36)"/><path class="cls-7" d="M886.73,1272.91s-3.82,16.86-3,42c.27,7.64,42,8.39,43.69.07s-5.44-35.23-5.44-35.23Z" transform="translate(-423.62 -87.36)"/><path class="cls-7" d="M917.74,1291.16s10.42-8.26,14.07,7.1c5.93,25,.66,84.38-10.83,20.12-.23-1.27,4.78,39.19-2.66,36.86s-10.55-38.46-10.55-38.46,2.36,38.6-4.08,33.64-10.41-30.06-10.41-30.06,4.49,32.2-3.51,27.58c-5.46-3.14-5.77-29.94-6.25-39.25-.45-8.8,4.08-12,11.1-11.92,0,0,7-4.85,11.6-3.39,1.75.56,3.36-1.55,4.62-1.83A37.72,37.72,0,0,1,917.74,1291.16Z" transform="translate(-423.62 -87.36)"/><path class="cls-9" d="M1031.68,1420.91l-1.14-.16c.06-.57,6.31-57.36,11-77.75,4.75-20.58,26.64-38.34,26.86-38.52l.66,1.06c-.21.17-21.76,17.67-26.41,37.78C1038,1363.64,1031.74,1420.34,1031.68,1420.91Z" transform="translate(-423.62 -87.36)"/><path class="cls-7" d="M1225.59,1011.83h0c3.39.45,6.48-2.56,6.85-6.69l3-34.73c.37-4.12-.86-20.21-4.26-20.66h0c-3.39-.44-6.94,12.87-7.76,16.9-1.9,9.3-8.79,26.77-10.54,36.1C1212.08,1006.8,1222.19,1011.38,1225.59,1011.83Z" transform="translate(-423.62 -87.36)"/><path class="cls-7" d="M1237.3,1034.27s13.71-5.3,30.58-19.9c5.13-4.43-17.11-47.34-23.77-44.51s-21.35,24.75-21.35,24.75Z" transform="translate(-423.62 -87.36)"/><path class="cls-7" d="M1233,992.75s-11.38-6.1-2.77-18.2c14-19.65,57.88-46.68,19.8.06-.76.92,24.44-26.24,26.89-17.4s-20.8,31.71-20.8,31.71,25.35-23.45,25.44-14.19-15.06,27-15.06,27,19.77-22.14,21-11.47c.8,7.27-17.52,22.21-23.69,27.77-5.83,5.25-10.51,2.39-14.28-4.8,0,0-7.18-4.51-8.66-10-.57-2.1-2.91-2.58-3.78-3.71A56.2,56.2,0,0,1,1233,992.75Z" transform="translate(-423.62 -87.36)"/><path class="cls-9" d="M572.3,1752.16s33.57-209.71,38.78-215.86,13.24-.69,10.4,10.93-41.87,200.69-43.5,204.93C576.4,1756.25,571.36,1758,572.3,1752.16Z" transform="translate(-423.62 -87.36)"/><path class="cls-17" d="M787.11,1477.64c.24-37.38-75.88-149.76-115.53-163.77-44.89-15.87-102.45-44.68-119.36,7.4S592,1533.74,592,1533.74s3.15,14.25,14.62,15.85,152.8,7.17,153,0C759.73,1545,807.08,1485.28,787.11,1477.64Z" transform="translate(-423.62 -87.36)"/><path class="cls-7" d="M765.77,1226.71s52.73,99.94,123.07,123.42l-12.59,34.43S787,1369.74,736,1265.09Z" transform="translate(-423.62 -87.36)"/><path class="cls-9" d="M820.32,1727.46s-.39,16.17,8.4,21.32,34.68,11,24.47,20.73c-5.86,5.59-32,0-39.46-.5s-14.6,3-19.86-3.43c-5.78-7.06,1.79-39.75,1.79-39.75s6.24,4.48,12,4.68C816,1730.8,820.32,1727.46,820.32,1727.46Z" transform="translate(-423.62 -87.36)"/><path class="cls-9" d="M911.83,1727.36s-.39,16.17,8.4,21.32,34.68,11,24.47,20.73c-5.86,5.58-32,0-39.46-.51s-14.6,3-19.86-3.43c-5.78-7,1.79-39.75,1.79-39.75s6.24,4.49,12,4.69C907.52,1730.7,911.83,1727.36,911.83,1727.36Z" transform="translate(-423.62 -87.36)"/><path class="cls-15" d="M921.47,1700.64c-6.58-105.93-8.13-177.42-35.73-223.34-30.22-50.26-111.21-85.81-142.44-88-50.93-3.62-74.93,5.59-74.93,5.59-38.23,96.55,21.65,109.35,66,112l4.4.3c26.82,2.06,74.5,10.33,92.55,42.69,14.29,25.62,24.2,61.6,28.39,154.4.8,17.8,13.1,31.61,27.78,31.12C887.44,1735.36,923.84,1738.75,921.47,1700.64Z" transform="translate(-423.62 -87.36)"/><path class="cls-15" d="M849.19,1706.1c.87-106.23,3.58-160.47-22.67-207.55-16.87-30.24-42.24-53.07-75.4-67.85-23.66-10.55-51.5-17-82.73-19.25-50.93-3.61-73.81-11.08-73.81-11.08-41.22,123.58,109.55,97.35,148.8,150,17.11,22.94,38.3,66.58,42.48,159.37.8,17.81,13.1,31.62,27.78,31.13C813.64,1740.87,848.87,1744.94,849.19,1706.1Z" transform="translate(-423.62 -87.36)"/><path class="cls-13" d="M848.93,1601.76c0-.64-2.62-63.66-11.31-85.68-11-27.85-42.94-56.94-75.93-69.16l.19-.65c33.14,12.28,65.23,41.52,76.29,69.53,8.74,22.13,11.34,85.29,11.36,85.93Z" transform="translate(-423.62 -87.36)"/><path class="cls-6" d="M630.71,1204.15s21.66-45,71.61-31.18,70.3,75.76,73.87,224.54c0,0-46.24-2.06-167.73,46.88-14.39,5.79-35.49,1.2-28.11-28.58C594.09,1360.47,607.39,1250.09,630.71,1204.15Z" transform="translate(-423.62 -87.36)"/><path class="cls-6" d="M586.57,1216.46,627.14,1229s89.83,32.27,115,32.52,35.56-22.08,35.56-22.08-20.28-41.82-62.8-61.54a107.49,107.49,0,0,0-12.56-4.93c-7.36-2.37-14.85-4.44-22.34-4.55C595.18,1167.25,586.57,1216.46,586.57,1216.46Z" transform="translate(-423.62 -87.36)"/><path class="cls-9" d="M586.57,1216.46c.1,5.1,12.35,9.21,27.37,9.17s27.12-4.19,27-9.29-12.35-9.21-27.37-9.17S586.47,1211.36,586.57,1216.46Z" transform="translate(-423.62 -87.36)"/><path class="cls-7" d="M660.24,1169.14c5.39-1.34,9.28-5.87,11-12.23l5.29-20,1.53-5.78,9-34,.65,34.12.38,20.47.11,5.84c.09,4.76.24,10.84,4.39,12.61,0,0,5.28,11-1,14C681.82,1188.86,660.21,1169.14,660.24,1169.14Z" transform="translate(-423.62 -87.36)"/><path class="cls-9" d="M647,1100.69s2.26,5,2.21,16.93c-.09,17.39,16.64,19.07,19.49,13.17.35-.73-6.49-28-6.49-28l-5.65-1.88Z" transform="translate(-423.62 -87.36)"/><path class="cls-9" d="M676.42,1136.41c0,.18.05.37.08.55C678,1147.81,688,1151.8,688,1151.8l.05-.07-.38-20.47c-3.05-1-7.34-1.83-9.68-.08C676.81,1132.09,676.13,1133.72,676.42,1136.41Z" transform="translate(-423.62 -87.36)"/><ellipse class="cls-7" cx="681.15" cy="1100.76" rx="26.52" ry="39.17" transform="translate(-567.14 15.62) rotate(-7.82)"/><path class="cls-9" d="M684.62,1068.2c-.45,1.41,8,19.65-20.83,34.27s-20.8-35.35,1-43.69c31.49-12,42,12.41,41,22.77S684.62,1068.2,684.62,1068.2Z" transform="translate(-423.62 -87.36)"/><path class="cls-9" d="M639.72,1057.79s12.77,5.17,6.33,16.19S617.6,1096.2,627,1108.05s19.42,30.67,8.8,37-17.92,7.63-20,20-24,12.42-25.22-1-21.24-19-16.45-33.32,20.73-30.74,21.8-47.73S629.49,1054,639.72,1057.79Z" transform="translate(-423.62 -87.36)"/><path class="cls-9" d="M665.67,1095.14s-8.67,19.69-.83,34.25c0,0-9.2-7-10.15-10.49s-1.93-16.74-1.93-16.74Z" transform="translate(-423.62 -87.36)"/><path class="cls-7" d="M660.45,1113.82c3.63,2.38,7.73,1.38,9.16-2.23s-.36-8.46-4-10.83-7.73-1.38-9.16,2.22S656.82,1111.44,660.45,1113.82Z" transform="translate(-423.62 -87.36)"/><path class="cls-3" d="M598.57,1175.1l-.57-.8c2.35-2.11,3.56-4.12,3.7-6.15.22-3.14-2.13-6-4.62-9.09s-4.91-6-5.26-9.65c-.45-4.61,3.81-7.06,7.93-9.44,3.15-1.82,6.41-3.71,7.17-6.42a6.1,6.1,0,0,0-.6-4.29c-.94-2-1.93-3.7-2.89-5.38-4.36-7.59-7.8-13.58-.44-32.24,9.34-23.69,20.5-28.39,31.17-29.94,1.29-.19,5.34.58,6,3.09s-2.47,5.5-9.18,8.88c-.08,0-11,7.28-13.21,24.55-1.13,9,4.89,16,10.2,22.24,4.93,5.78,9.18,10.77,5.25,15.36a38.61,38.61,0,0,1-7.19,6.1c-6.25,4.47-12.16,8.69-9.82,23l-.89.18c-2.45-15,3.71-19.38,10.23-24a38.08,38.08,0,0,0,7-6c3.33-3.88-.46-8.32-5.25-13.94-5.18-6.08-11.63-13.65-10.44-23.09,2.24-17.79,13.57-25.25,13.69-25.32,8.53-4.29,8.94-6.81,8.72-7.69-.42-1.69-3.75-2.54-5-2.36-10.4,1.51-21.29,6.11-30.45,29.35-7.16,18.15-3.84,23.94.36,31.26,1,1.7,2,3.45,2.93,5.46a7.14,7.14,0,0,1,.67,5.07c-.87,3.13-4.3,5.11-7.62,7-4,2.33-7.83,4.52-7.45,8.43.33,3.28,2.72,6.22,5,9.07,2.62,3.23,5.1,6.28,4.85,9.86C602.44,1170.56,601.12,1172.8,598.57,1175.1Z" transform="translate(-423.62 -87.36)"/><path class="cls-3" d="M660.94,1090.83l-.31-1.1c10.82-3.92,14-16.51,14-16.64l1,.31C675.6,1073.53,672.29,1086.73,660.94,1090.83Z" transform="translate(-423.62 -87.36)"/><path class="cls-10" d="M705.6,1118.23c-5.93.59-11.28-5.86-11.91-14.4a19.3,19.3,0,0,1,2.94-12.22,9.4,9.4,0,0,1,6.67-4.33c5.93-.6,11.27,5.86,11.91,14.4a19.19,19.19,0,0,1-3,12.21,10,10,0,0,1-5,4A6.84,6.84,0,0,1,705.6,1118.23Zm-8.48-26.12a18.3,18.3,0,0,0-2.8,11.65c.6,8.12,5.64,14.26,11.23,13.71a8.8,8.8,0,0,0,6.23-4.07,18.45,18.45,0,0,0,2.8-11.65c-.61-8.12-5.64-14.27-11.23-13.71a7.53,7.53,0,0,0-1.55.34A9.41,9.41,0,0,0,697.12,1092.11Z" transform="translate(-423.62 -87.36)"/><path class="cls-10" d="M680.08,1122.22c-5.94.59-11.28-5.87-11.91-14.4h0a19.28,19.28,0,0,1,2.94-12.22,9.45,9.45,0,0,1,6.67-4.34c5.93-.59,11.27,5.87,11.91,14.4a19.29,19.29,0,0,1-3,12.22,10.06,10.06,0,0,1-5,4A7.94,7.94,0,0,1,680.08,1122.22Zm-8.49-26.13a18.39,18.39,0,0,0-2.79,11.66h0c.6,8.11,5.64,14.26,11.22,13.7a8.83,8.83,0,0,0,6.24-4.06,18.46,18.46,0,0,0,2.8-11.66c-.61-8.11-5.65-14.26-11.23-13.7a6.8,6.8,0,0,0-1.55.33A9.49,9.49,0,0,0,671.59,1096.09Z" transform="translate(-423.62 -87.36)"/><path class="cls-10" d="M697,1104.24a.36.36,0,0,0,.22-.24.41.41,0,0,0-.19-.49c-.16-.07-4.06-1.75-9.54,1.19a.43.43,0,0,0-.16.51.31.31,0,0,0,.42.2c5.23-2.82,9-1.19,9.06-1.18A.25.25,0,0,0,697,1104.24Z" transform="translate(-423.62 -87.36)"/><path class="cls-18" d="M700.73,1120.71A47.77,47.77,0,0,1,682.6,1123s1.63,10.62,11.18,8.19C699.34,1129.8,700.73,1120.71,700.73,1120.71Z" transform="translate(-423.62 -87.36)"/><path class="cls-3" d="M700.73,1120.71s-1.62,2.81-6.52,4.42-11.61-2.1-11.61-2.1S693.84,1123,700.73,1120.71Z" transform="translate(-423.62 -87.36)"/><path class="cls-12" d="M683.69,1100.31a.75.75,0,0,0,.29-.55.7.7,0,0,0-.52-.8c-.2,0-4.63-1.16-7,4.51a.81.81,0,0,0,.24,1c.29.19.6,0,.81-.3a9.71,9.71,0,0,1,5.83-3.76A.54.54,0,0,0,683.69,1100.31Z" transform="translate(-423.62 -87.36)"/><path class="cls-12" d="M680.86,1109.54c.34,1.69,1.42,2.82,2.43,2.52s1.56-1.9,1.22-3.59-1.42-2.82-2.43-2.52S680.53,1107.85,680.86,1109.54Z" transform="translate(-423.62 -87.36)"/><path class="cls-12" d="M705.13,1097.1a.6.6,0,0,0,.44-.37.82.82,0,0,0-.23-1c-.17-.11-3.92-3.21-7.91.93a.84.84,0,0,0-.08,1,.57.57,0,0,0,.84.1,8.6,8.6,0,0,1,6.57-.78A.51.51,0,0,0,705.13,1097.1Z" transform="translate(-423.62 -87.36)"/><path class="cls-12" d="M699.62,1104.32c-.22,1.72.43,3.27,1.46,3.46s2-1,2.25-2.75-.43-3.27-1.45-3.46S699.84,1102.61,699.62,1104.32Z" transform="translate(-423.62 -87.36)"/><path class="cls-9" d="M774.14,1778.66l-1.65-.19c-1.28-.16-2.24-2.73-2.14-5.76l12.78-382.54,24.28-14.6L778,1771C777.76,1775.48,776.06,1778.89,774.14,1778.66Z" transform="translate(-423.62 -87.36)"/><path class="cls-9" d="M1143.84,1778.66l1.65-.19c1.28-.16,2.24-2.73,2.14-5.76l-12.78-382.54-24.29-14.6L1140,1771C1140.22,1775.48,1141.91,1778.89,1143.84,1778.66Z" transform="translate(-423.62 -87.36)"/><ellipse class="cls-17" cx="525.44" cy="1320.9" rx="220.71" ry="34.69"/><rect class="cls-17" x="304.73" y="1304.9" width="441.42" height="16"/><ellipse class="cls-1" cx="525.44" cy="1304.9" rx="220.71" ry="34.69"/><path class="cls-9" d="M1107.09,1417.39a.85.85,0,0,1-.8-.78.9.9,0,0,1,.69-1c18.49-3,33.25-6.42,43.88-10.2a.79.79,0,0,1,1,.59.94.94,0,0,1-.53,1.15c-10.71,3.82-25.55,7.27-44.13,10.27Z" transform="translate(-423.62 -87.36)"/><path class="cls-9" d="M765.78,1412.51l-.18,0c-.88-.22-21.8-5.41-30-10.35a1,1,0,0,1-.33-1.23.76.76,0,0,1,1.09-.38c8,4.82,29.38,10.12,29.6,10.18a.92.92,0,0,1,.62,1.08A.85.85,0,0,1,765.78,1412.51Z" transform="translate(-423.62 -87.36)"/><path class="cls-7" d="M755.15,1356s26.52-12.12,35.3-7.73,17.27,18,11.35,16.73-13.1-5.53-13.1-5.53,15,9.88,11.57,13.14-16.39-5.49-16.39-5.49,17.07,13.48,13,15.29-17-8.55-17-8.55,15.47,13.32,10.72,15.28-12.73-11.1-16.15-7.84-11.88,17.75-20.5,7.31Z" transform="translate(-423.62 -87.36)"/><path class="cls-7" d="M646.32,1357.66c30.07,32,59.61,38.18,107.69,31l1.14-32.6c-35,5.25-59.46-17.42-79.62-38.86-28.67-30.51-37.08-77.74-39.47-99.12a5.38,5.38,0,0,0-2.94-4.43c-5.25-2.33-18.28-6.17-38,.81a4.84,4.84,0,0,0-2.85,4.84C593.72,1259.91,608.46,1317.38,646.32,1357.66Z" transform="translate(-423.62 -87.36)"/><g class="cls-19"><path class="cls-20" d="M652.25,1346.16l-.59,0c-2.66-.24-5.47-2.14-7.53-5.09h0c-3.52-5-3.88-11.78-.79-15a5.54,5.54,0,0,1,4.66-1.71c2.66.25,5.47,2.15,7.52,5.09,3.53,5.06,3.89,11.78.8,15A5.5,5.5,0,0,1,652.25,1346.16Zm-4.84-19.9a3.93,3.93,0,0,0-2.91,1.22c-2.45,2.54-2,8.09,1,12.37h0c1.76,2.52,4.12,4.15,6.32,4.35a4,4,0,0,0,3.36-1.2c2.44-2.53,2-8.08-1-12.37-1.77-2.52-4.13-4.15-6.32-4.35Z" transform="translate(-423.62 -87.36)"/></g><path class="cls-9" d="M806.64,1394.35h90.08a4.54,4.54,0,0,0,4.16-3.61l18.72-67.9c.94-3.42-1.17-6.95-4.16-6.95H828.81c-3.95,0-7.45,3-8.7,7.57l-17.63,63.94C801.54,1390.82,803.65,1394.35,806.64,1394.35Z" transform="translate(-423.62 -87.36)"/><path class="cls-9" d="M812.29,1394.35h90.09a4.52,4.52,0,0,0,4.15-3.61l18.72-67.9c.94-3.42-1.17-6.95-4.15-6.95H834.46c-3.94,0-7.45,3-8.69,7.57l-17.63,63.94C807.19,1390.82,809.3,1394.35,812.29,1394.35Z" transform="translate(-423.62 -87.36)"/><path class="cls-21" d="M875.41,1352.9c0-2.58-2.45-3.63-4.58-3.63s-5.63,2.83-5.61,6.44c0,3.9,2.53,4.41,4.67,4.41S875.41,1356.18,875.41,1352.9Z" transform="translate(-423.62 -87.36)"/><path class="cls-9" d="M779.57,1384.76H902.42v9.59H776.8a3.07,3.07,0,0,1-2.87-3.23h0C773.93,1387.61,776.46,1384.76,779.57,1384.76Z" transform="translate(-423.62 -87.36)"/><path class="cls-22" d="M818.71,1350.21l-.59-.16c.18-.84,4.48-20.42,7.38-26.75s6.54-7.69,6.69-7.74l.17.66s-3.51,1.26-6.32,7.4S818.75,1350,818.71,1350.21Z" transform="translate(-423.62 -87.36)"/><path class="cls-22" d="M805.38,1385.1v-.69c2.94,0,3.67-1.48,3.68-1.49l7-25.41.58.2-7,25.47C809.57,1383.3,808.73,1385.1,805.38,1385.1Z" transform="translate(-423.62 -87.36)"/><g class="cls-23"><path class="cls-2" d="M2309.28,136.78S2285.39,81,2224.94,88s-53.25,62.93-82,57.68-69.08,0-77.72,35-47.49,15.73-48.93,45.45,44.62,50.69,97.87,24.47,79.16,20.37,154,11.93,84.11-18.92,128.41-13.68,43.25-31.59,23.1-56.07S2317.92,170.57,2309.28,136.78Z" transform="translate(-423.62 -87.36)"/></g><path class="cls-2" d="M684.93,457.07s14.51-33.88,51.21-29.64,32.34,38.21,49.81,35,41.95,0,47.19,21.22,28.84,9.55,29.72,27.6-27.1,30.77-59.43,14.86-48.06,12.36-93.51,7.24-51.07-11.49-78-8.31-26.25-19.18-14-34S679.69,477.59,684.93,457.07Z" transform="translate(-423.62 -87.36)"/><path class="cls-2" d="M2513,337.18s-14-32.75-49.5-28.65-31.26,36.94-48.16,33.86-40.55,0-45.62,20.52-27.88,9.24-28.73,26.68,26.19,29.76,57.45,14.37,46.47,12,90.4,7,49.38-11.11,75.38-8,25.39-18.55,13.56-32.91S2518.11,357,2513,337.18Z" transform="translate(-423.62 -87.36)"/><path class="cls-2" d="M1317.84,125.57s-15.32-35.79-54.08-31.3-34.15,40.35-52.61,37-44.3,0-49.84,22.41-30.46,10.09-31.38,29.15,28.61,32.5,62.76,15.69,50.76,13.06,98.76,7.65,53.94-12.13,82.34-8.77,27.74-20.26,14.82-35.95S1323.38,147.24,1317.84,125.57Z" transform="translate(-423.62 -87.36)"/></svg>