<svg id="Ñëîé_1" data-name="Ñëîé 1" xmlns="http://www.w3.org/2000/svg" xmlns:xlink="http://www.w3.org/1999/xlink" viewBox="0 0 2274.12 1302.24"><defs><style>.cls-1{fill:#242e6c;}.cls-2{fill:#c0d3f8;}.cls-3,.cls-6{fill:#f24b46;}.cls-4{fill:#f9795a;}.cls-5{fill:#eb3668;}.cls-6{opacity:0.4;}.cls-7{fill:url(#Áåçûìÿííûé_ãðàäèåíò_8);}.cls-8{fill:#fd8857;}.cls-9{fill:#1b2251;}.cls-10{fill:#dce7fb;}.cls-11{fill:#6615b2;}.cls-12{fill:#c643db;}.cls-13{fill:#efecea;}.cls-14{fill:#cddcf9;}.cls-15{fill:#ff9e9a;}.cls-16{fill:#7f22ba;}.cls-17{fill:#1d2453;}.cls-18{fill:#363f78;}.cls-19{fill:#9e30ca;}.cls-20{fill:#ff7d78;}.cls-21{fill:#222956;}.cls-22{fill:#ffb9b6;}.cls-23{fill:#ff9792;}.cls-24{fill:#ffa9a5;}.cls-25{fill:#b1c9f6;}.cls-26{fill:#313b75;}.cls-27{fill:#ffaeaa;}.cls-28{opacity:0.5;}</style><linearGradient id="Áåçûìÿííûé_ãðàäèåíò_8" x1="463.48" y1="726.52" x2="1549.46" y2="726.52" gradientUnits="userSpaceOnUse"><stop offset="0" stop-color="#f9795a"/><stop offset="1" stop-color="#eb3668"/></linearGradient></defs><title>bg</title><path class="cls-1" d="M1354.51,1351.51s89.13,18.69,84.63,35.06-97.82-28-97.82-28-68.8,61.53-78.38,92.9c0,0,100.49-14.22,92.09.54s-112.27,34.41-112.27,34.41-47.23,72.75-5.78,104.74,73.26,21.23,81,10.77,37.81-85.77,46.73-79.8,3.53,63-16.91,87.59c0,0,89.74.71,102.78-41.75s-7-65.6,1.51-91.69,23-41.76,24.57-26.3-20.74,56.38-11.83,84,12.75,48.59,36.25,13.88,46.85-104.82,23.31-130.53l-3-3.22a16.76,16.76,0,0,1,3,3.22c7-5.31,30.79-7.74,48.75-8.83,3,0,7.17-.17,13-.63h0c2.56-.1,4.66-.16,6.12-.19,39,.49,93.85,31.51,93.85,31.51l5.53-7.2c-50.79-42.09-111.68-30.41-111.68-30.41-46.4,4.71-79.08-10-79.08-10s-10.63-89.88-80.18-78.81C1420.68,1312.82,1375.35,1326,1354.51,1351.51Z" transform="translate(-761.81 -339.39)"/><path class="cls-1" d="M2529.69,594.17C2506,506.5,2358,533.9,2358,533.9S2257.54,687.32,2228.32,691s60.27-148,60.27-148C2232,537.55,2087.68,607,2087.68,607s9.13,179-20.09,175.34,0-158.91,0-158.91c-54.8,16.44-105.94,80.37-105.94,80.37-63.93,104.11,73.06,180.83,73.06,180.83s1.83,62.1-36.53,133.33h0s-8.66,13.16-17.46,35.51h14.94c1.22-4,2.56-7.88,4-11.59a.09.09,0,0,1,0-.07c0-.06,0-.11.07-.16,1-2.31,2.49-5.6,4.32-9.6h0v0c4.56-8.94,7.65-15.54,9.6-20.3a.09.09,0,0,0,0,0c13.68-28,33.38-64.58,46.52-72.25a29,29,0,0,1-3.2-6.85l3.2,6.85c25.57,54.8,153.43,63.93,224.66,49.32s40.18-34.71,1.83-67.31-118.73-24-142.47-36.8,11-25.57,58.45-21.92,71.23,51.14,147.95,58.45,135.16-137,135.16-137c-53,16.44-148-12.79-151.6-31s137-16.44,158.9-21.92S2553.44,681.84,2529.69,594.17Z" transform="translate(-761.81 -339.39)"/><path class="cls-1" d="M1111.25,600.62c32.71-52.35,123.54-5.4,123.54-5.4s35.13,119.57,53.42,127.7-10.08-108.1-10.08-108.1C1316,622.41,1396.22,696,1396.22,696S1355,810.58,1374.77,814s31.28-103.35,31.28-103.35c32.41,21.48,53.08,73.13,53.08,73.13C1480.21,864,1376,887,1376,887s-13.41,40-2.49,93.92h0s3,10.26,4.36,26.53l-9.71-2.94c0-2.85-.12-5.63-.36-8.34a0,0,0,0,0,0,0,.49.49,0,0,1,0-.12c-.22-1.7-.53-4.13-.93-7.09h0s0,0,0,0c-1.21-6.71-1.92-11.61-2.25-15.09v0c-3.37-20.93-9-48.58-16-56.15a19.91,19.91,0,0,0,3.43-3.83l-3.43,3.83c-27.42,30.6-112.37,11.37-155.83-12.16s-19.3-30.48,12.07-44.14,81.94,7.76,99.9,4.12-2.09-18.79-33.7-25.77-56.4,19.24-107.73,8.89-60.94-115.71-60.94-115.71c31.22,21.12,98.74,20.81,104.72,9.65s-85.86-37.66-99-45.54S1078.54,653,1111.25,600.62Z" transform="translate(-761.81 -339.39)"/><path class="cls-1" d="M1879.36,594.35c-22.89-38.12-88.92-5.46-88.92-5.46s-26.83,85.68-40.11,91.3,8.64-77.74,8.64-77.74c-27.4,5-86.1,56.94-86.1,56.94s28.2,83.09,14,85.27-21.22-74.84-21.22-74.84c-23.61,15.06-39.17,52-39.17,52-16.21,57.57,58.56,75.41,58.56,75.41s9.15,29,.59,67.68h0A103.53,103.53,0,0,0,1682.1,884l7-2q.06-3.08.36-6v0a.28.28,0,0,0,0-.09c.18-1.22.43-3,.76-5.1h0c1-4.82,1.52-8.34,1.81-10.85v0c2.69-15,7.09-34.88,12.26-40.24a14.33,14.33,0,0,1-2.42-2.8l2.42,2.8c19.36,22.39,80.8,9.62,112.4-6.77s14.3-21.71-8.12-32-59.13,4.54-72,1.69,1.74-13.51,24.6-18.13,40.38,14.58,77.49,7.78,45.37-82.57,45.37-82.57c-22.75,14.81-71.39,13.73-75.55,5.61s62.33-26,71.92-31.54S1902.25,632.48,1879.36,594.35Z" transform="translate(-761.81 -339.39)"/><path class="cls-2" d="M764.65,1602.09a29,29,0,0,1-2.84.62C762.76,1602.48,763.7,1602.28,764.65,1602.09Z" transform="translate(-761.81 -339.39)"/><path class="cls-3" d="M1697.94,1073.49,1653,1607.65s-4.7,32.37,19.38,32.43c39.6.1,197.1,0,197.1,0s-29.8-6.74-29.44-21.9c.43-17.88,52.51-549.74,52.51-549.74Z" transform="translate(-761.81 -339.39)"/><path class="cls-4" d="M1882.27,1630.39c-7.79,0-158.22.5-196.78,0-16.81-.21-19.76-14.94-19.9-24.48a47.73,47.73,0,0,1,.51-8l1.17-13.88,3-35.39,2.63-31.26,3.38-40.17,2.84-33.91L1711,1063.8l194.63-5s-21.94,222.58-37.45,384.6c-1.74,18.05-3.38,35.36-4.91,51.52q-.74,7.74-1.43,15.11c-1.44,15.33-2.75,29.41-3.9,41.84-.6,6.55-1.16,12.64-1.66,18.21-2,21.85-3.14,35.8-3.16,38.46a23.55,23.55,0,0,0,.38,4.32C1856.72,1629.83,1879.35,1630.39,1882.27,1630.39Z" transform="translate(-761.81 -339.39)"/><polygon class="cls-4" points="463.48 443.44 572.9 882.98 587.88 943.18 638.85 1147.9 1585.7 1147.9 1397.85 443.44 463.48 443.44"/><polygon class="cls-4" points="463.48 443.44 448.31 448.5 618.69 1163.2 638.85 1147.91 463.48 443.44"/><polygon class="cls-3" points="618.69 1163.2 1559.71 1163.2 1585.7 1147.91 638.85 1147.91 618.69 1163.2"/><rect class="cls-4" x="1710.96" y="1630.6" width="203.75" height="9.68" transform="translate(2863.86 2931.5) rotate(180)"/><polygon class="cls-5" points="1539.83 1018.1 1386.19 452.75 465.8 452.75 463.48 443.44 1397.85 443.44 1550.98 1016.84 1539.83 1018.1"/><polygon class="cls-3" points="1101.1 1163.19 1100.05 1170.59 908.44 1209.3 911.07 1178.04 912.32 1163.19 1101.1 1163.19"/><path class="cls-6" d="M1882.27,1630.39c-7.79,0-158.22.5-196.78,0-16.81-.21-19.76-14.94-19.9-24.48L1856.3,1570c-2,21.85-3.14,35.8-3.16,38.46a23.55,23.55,0,0,0,.38,4.32C1856.72,1629.83,1879.35,1630.39,1882.27,1630.39Z" transform="translate(-761.81 -339.39)"/><polygon class="cls-3" points="1054.79 1005.29 638.85 1147.91 587.88 943.18 1054.79 1005.29"/><polygon class="cls-7" points="463.48 443.44 1397.85 443.44 1549.46 1009.61 604.42 1009.61 463.48 443.44"/><path class="cls-3" d="M1899.19,1420.57c-2.7-13.89-16.14-25.14-30-25.14s-23,11.25-20.25,25.14,16.14,25.14,30,25.14S1901.89,1434.45,1899.19,1420.57Z" transform="translate(-761.81 -339.39)"/><polygon class="cls-8" points="1505.39 985.07 630.53 985.07 531.45 590.39 523.86 560.12 517.38 534.3 502.18 473.77 1364.43 473.77 1381.12 534.3 1388.23 560.12 1396.58 590.39 1505.39 985.07"/><polygon class="cls-9" points="1381.12 534.3 517.38 534.3 502.18 473.77 1364.43 473.77 1381.12 534.3"/><path class="cls-10" d="M1299.66,840.51c-1-4.18,1.5-7.56,5.68-7.56a10.33,10.33,0,0,1,9.46,7.56c1,4.18-1.5,7.57-5.68,7.57A10.35,10.35,0,0,1,1299.66,840.51Z" transform="translate(-761.81 -339.39)"/><path class="cls-10" d="M1324.81,840.51c-1-4.18,1.5-7.56,5.68-7.56a10.32,10.32,0,0,1,9.45,7.56c1,4.18-1.5,7.57-5.68,7.57A10.33,10.33,0,0,1,1324.81,840.51Z" transform="translate(-761.81 -339.39)"/><path class="cls-10" d="M1351.88,840.51c-1-4.18,1.5-7.56,5.68-7.56a10.33,10.33,0,0,1,9.46,7.56c1,4.18-1.5,7.57-5.68,7.57A10.34,10.34,0,0,1,1351.88,840.51Z" transform="translate(-761.81 -339.39)"/><polygon class="cls-1" points="1312.67 950.06 664.63 950.06 566.01 563.05 1204.9 563.05 1312.67 950.06"/><polygon class="cls-11" points="1396.47 653.1 1249.6 653.1 1222.74 563.05 1371.4 563.05 1396.47 653.1"/><text x="-761.81" y="-339.39"/><polygon class="cls-4" points="1149.22 600.74 1011.74 600.74 1008.28 587.78 1145.76 587.78 1149.22 600.74"/><polygon class="cls-4" points="1014.35 635.65 865.31 635.65 861.86 622.69 1010.89 622.69 1014.35 635.65"/><polygon class="cls-5" points="1105.01 635.65 1027.76 635.65 1024.3 622.69 1101.55 622.69 1105.01 635.65"/><polygon class="cls-12" points="1025.58 695.75 941.55 695.75 938.09 682.79 1022.13 682.79 1025.58 695.75"/><polygon class="cls-4" points="1174.58 695.75 1037.1 695.75 1033.64 682.79 1171.12 682.79 1174.58 695.75"/><polygon class="cls-13" points="1039.71 730.66 890.67 730.66 887.22 717.71 1036.25 717.71 1039.71 730.66"/><polygon class="cls-13" points="1130.37 730.66 1053.12 730.66 1049.66 717.71 1126.91 717.71 1130.37 730.66"/><polygon class="cls-3" points="949.47 784.7 665.15 784.7 661.69 771.74 946.01 771.74 949.47 784.7"/><polygon class="cls-12" points="1051.68 784.7 967.64 784.7 964.18 771.74 1048.22 771.74 1051.68 784.7"/><polygon class="cls-4" points="1200.68 784.7 1063.2 784.7 1059.74 771.74 1197.22 771.74 1200.68 784.7"/><polygon class="cls-13" points="758.5 819.61 674.47 819.61 671.01 806.65 755.05 806.65 758.5 819.61"/><polygon class="cls-5" points="1065.8 819.61 916.77 819.61 913.31 806.65 1062.34 806.65 1065.8 819.61"/><polygon class="cls-4" points="907.5 819.61 770.02 819.61 766.56 806.65 904.04 806.65 907.5 819.61"/><polygon class="cls-4" points="1156.46 819.61 1079.21 819.61 1075.75 806.65 1153 806.65 1156.46 819.61"/><polygon class="cls-3" points="981.75 881.07 697.43 881.07 693.97 868.12 978.29 868.12 981.75 881.07"/><polygon class="cls-12" points="1083.96 881.07 999.92 881.07 996.46 868.12 1080.5 868.12 1083.96 881.07"/><polygon class="cls-13" points="790.78 915.98 706.75 915.98 703.29 903.02 787.32 903.02 790.78 915.98"/><polygon class="cls-5" points="1098.08 915.98 949.05 915.98 945.59 903.02 1094.62 903.02 1098.08 915.98"/><polygon class="cls-4" points="939.78 915.98 802.3 915.98 798.84 903.02 936.32 903.02 939.78 915.98"/><polygon class="cls-4" points="1188.74 915.98 1111.49 915.98 1108.03 903.02 1185.28 903.02 1188.74 915.98"/><polygon class="cls-13" points="1323.35 680.96 1258.71 681.16 1257.28 675.29 1321.92 675.09 1323.35 680.96"/><polygon class="cls-13" points="1357.44 680.85 1333.13 680.93 1331.7 675.06 1356.01 674.98 1357.44 680.85"/><polygon class="cls-13" points="1406.7 680.7 1363.75 680.83 1362.32 674.96 1405.27 674.83 1406.7 680.7"/><polygon class="cls-13" points="1297.77 695.89 1262.33 696 1260.9 690.13 1296.34 690.02 1297.77 695.89"/><polygon class="cls-13" points="1349.44 695.73 1303.67 695.87 1302.24 690 1348.01 689.86 1349.44 695.73"/><polygon class="cls-13" points="1410.32 695.54 1357.88 695.71 1356.44 689.83 1408.89 689.67 1410.32 695.54"/><polygon class="cls-13" points="1331.08 712.67 1266.44 712.87 1265.01 707 1329.65 706.8 1331.08 712.67"/><polygon class="cls-13" points="1365.17 712.57 1340.86 712.64 1339.43 706.77 1363.74 706.7 1365.17 712.57"/><polygon class="cls-13" points="1414.43 712.41 1371.48 712.55 1370.05 706.68 1413 706.54 1414.43 712.41"/><polygon class="cls-13" points="1305.5 727.6 1270.06 727.71 1268.63 721.84 1304.07 721.73 1305.5 727.6"/><polygon class="cls-13" points="1357.17 727.44 1311.4 727.59 1309.97 721.72 1355.74 721.57 1357.17 727.44"/><polygon class="cls-13" points="1418.05 727.26 1365.61 727.42 1364.17 721.55 1416.62 721.39 1418.05 727.26"/><polygon class="cls-13" points="1280.39 575.55 1241.47 575.67 1240.61 572.13 1279.53 572.01 1280.39 575.55"/><polygon class="cls-13" points="1300.92 575.49 1286.28 575.53 1285.42 572 1300.06 571.95 1300.92 575.49"/><polygon class="cls-13" points="1330.59 575.39 1304.72 575.47 1303.86 571.94 1329.72 571.86 1330.59 575.39"/><polygon class="cls-13" points="1264.99 584.54 1243.65 584.61 1242.79 581.07 1264.13 581.01 1264.99 584.54"/><polygon class="cls-13" points="1296.1 584.45 1268.54 584.53 1267.68 581 1295.24 580.91 1296.1 584.45"/><polygon class="cls-13" points="1332.77 584.33 1301.18 584.43 1300.32 580.89 1331.9 580.8 1332.77 584.33"/><polygon class="cls-13" points="1285.05 594.65 1246.12 594.77 1245.26 591.23 1284.18 591.11 1285.05 594.65"/><polygon class="cls-13" points="1305.58 594.58 1290.94 594.63 1290.08 591.09 1304.71 591.05 1305.58 594.58"/><polygon class="cls-13" points="1335.24 594.49 1309.37 594.57 1308.51 591.04 1334.38 590.96 1335.24 594.49"/><polygon class="cls-13" points="1269.64 603.64 1248.3 603.71 1247.44 600.17 1268.78 600.1 1269.64 603.64"/><polygon class="cls-13" points="1300.76 603.54 1273.2 603.63 1272.34 600.09 1299.89 600.01 1300.76 603.54"/><polygon class="cls-13" points="1337.42 603.43 1305.84 603.53 1304.98 599.99 1336.56 599.89 1337.42 603.43"/><polygon class="cls-13" points="1344.29 766.86 1279.65 767.06 1278.22 761.19 1342.86 760.99 1344.29 766.86"/><polygon class="cls-13" points="1378.38 766.75 1354.07 766.83 1352.64 760.96 1376.95 760.88 1378.38 766.75"/><polygon class="cls-13" points="1427.64 766.6 1384.69 766.73 1383.26 760.86 1426.21 760.73 1427.64 766.6"/><polygon class="cls-13" points="1318.71 781.79 1283.27 781.9 1281.84 776.03 1317.28 775.92 1318.71 781.79"/><polygon class="cls-13" points="1370.38 781.63 1324.61 781.77 1323.18 775.9 1368.94 775.76 1370.38 781.63"/><polygon class="cls-13" points="1431.26 781.44 1378.81 781.61 1377.38 775.74 1429.83 775.57 1431.26 781.44"/><polygon class="cls-13" points="1357.23 819.97 1292.6 820.16 1291.17 814.29 1355.8 814.1 1357.23 819.97"/><polygon class="cls-13" points="1391.32 819.86 1367.02 819.93 1365.59 814.07 1389.89 813.99 1391.32 819.86"/><polygon class="cls-13" points="1440.59 819.71 1397.63 819.84 1396.2 813.97 1439.15 813.84 1440.59 819.71"/><polygon class="cls-13" points="1331.65 834.9 1296.21 835.01 1294.79 829.14 1330.22 829.03 1331.65 834.9"/><polygon class="cls-13" points="1383.32 834.74 1337.56 834.88 1336.13 829.01 1381.89 828.87 1383.32 834.74"/><polygon class="cls-13" points="1444.2 834.55 1391.76 834.71 1390.33 828.84 1442.77 828.68 1444.2 834.55"/><polygon class="cls-13" points="1368.9 867.81 1304.26 868.01 1302.83 862.14 1367.47 861.94 1368.9 867.81"/><polygon class="cls-13" points="1402.98 867.71 1378.68 867.78 1377.25 861.91 1401.55 861.84 1402.98 867.71"/><polygon class="cls-13" points="1452.25 867.56 1409.29 867.69 1407.86 861.82 1450.82 861.69 1452.25 867.56"/><polygon class="cls-13" points="1343.31 882.75 1307.88 882.86 1306.45 876.99 1341.88 876.88 1343.31 882.75"/><polygon class="cls-13" points="1394.98 882.59 1349.22 882.73 1347.79 876.86 1393.55 876.72 1394.98 882.59"/><polygon class="cls-13" points="1455.87 882.4 1403.42 882.56 1401.99 876.69 1454.44 876.53 1455.87 882.4"/><path class="cls-1" d="M2161.16,1278.37c-10.39,0-21.3-8.45-24.34-18.84s2.95-18.84,13.34-18.84,21.31,8.45,24.34,18.84S2171.55,1278.37,2161.16,1278.37Zm-10-34.24c-8.49,0-13.38,6.91-10.91,15.4s11.41,15.4,19.9,15.4,13.38-6.91,10.9-15.4S2159.66,1244.13,2151.17,1244.13Z" transform="translate(-761.81 -339.39)"/><path class="cls-1" d="M2158.08,1269.11a3.83,3.83,0,0,1-2.11-.88l-10.57-8.46c-1.43-1.14-1.92-3-1.1-4s2.65-1.06,4.08.09l7.47,6,3.83-8.85c.55-1.28,2.26-1.57,3.82-.64s2.36,2.72,1.8,4l-5,11.64a2,2,0,0,1-1.78,1.17Z" transform="translate(-761.81 -339.39)"/><path class="cls-5" d="M2213.16,1278.37c-10.38,0-21.3-8.45-24.33-18.84s3-18.84,13.34-18.84,21.3,8.45,24.33,18.84S2223.55,1278.37,2213.16,1278.37Zm-10-34.24c-8.49,0-13.38,6.91-10.9,15.4s11.4,15.4,19.89,15.4,13.38-6.91,10.9-15.4S2211.66,1244.13,2203.17,1244.13Z" transform="translate(-761.81 -339.39)"/><path class="cls-5" d="M2208.56,1262.61h0a3.87,3.87,0,0,1-3.44-2.66l-2.33-8a1.93,1.93,0,0,1,1.88-2.67h0a3.86,3.86,0,0,1,3.45,2.67l2.33,8A1.93,1.93,0,0,1,2208.56,1262.61Z" transform="translate(-761.81 -339.39)"/><path class="cls-5" d="M2210.69,1268.89h-.58a3.44,3.44,0,0,1-3.07-2.37h0a1.73,1.73,0,0,1,1.68-2.38h.58a3.43,3.43,0,0,1,3.07,2.38h0A1.72,1.72,0,0,1,2210.69,1268.89Z" transform="translate(-761.81 -339.39)"/><path class="cls-14" d="M2103.21,983.81c-5.69,0-11.68-4.63-13.34-10.33s1.62-10.32,7.31-10.32,11.68,4.63,13.35,10.32S2108.91,983.81,2103.21,983.81ZM2097.73,965c-4.65,0-7.33,3.79-6,8.44s6.25,8.45,10.9,8.45,7.34-3.79,6-8.45S2102.39,965,2097.73,965Z" transform="translate(-761.81 -339.39)"/><path class="cls-14" d="M2101.52,978.74a2.21,2.21,0,0,1-1.16-.48l-5.79-4.64a1.71,1.71,0,0,1-.6-2.23,1.59,1.59,0,0,1,2.24.05l4.09,3.28,2.1-4.85c.3-.7,1.24-.86,2.09-.35a1.88,1.88,0,0,1,1,2.19l-2.76,6.38a1.09,1.09,0,0,1-1,.65Z" transform="translate(-761.81 -339.39)"/><path class="cls-14" d="M2073.66,983.81c-5.7,0-11.68-4.63-13.34-10.33s1.61-10.32,7.31-10.32,11.68,4.63,13.34,10.32S2079.36,983.81,2073.66,983.81ZM2068.18,965c-4.65,0-7.34,3.79-6,8.44s6.25,8.45,10.91,8.45,7.34-3.79,6-8.45S2072.84,965,2068.18,965Z" transform="translate(-761.81 -339.39)"/><path class="cls-14" d="M2072,978.74a2.18,2.18,0,0,1-1.16-.48l-5.79-4.64a1.7,1.7,0,0,1-.6-2.23,1.58,1.58,0,0,1,2.23.05l4.1,3.28,2.1-4.85c.3-.7,1.24-.86,2.09-.35a1.9,1.9,0,0,1,1,2.19l-2.76,6.38a1.09,1.09,0,0,1-1,.65Z" transform="translate(-761.81 -339.39)"/><path class="cls-14" d="M2043.05,983.81c-5.7,0-11.68-4.63-13.34-10.33s1.61-10.32,7.31-10.32,11.68,4.63,13.34,10.32S2048.74,983.81,2043.05,983.81ZM2037.57,965c-4.66,0-7.34,3.79-6,8.44s6.25,8.45,10.91,8.45,7.33-3.79,6-8.45S2042.22,965,2037.57,965Z" transform="translate(-761.81 -339.39)"/><path class="cls-14" d="M2041.36,978.74a2.18,2.18,0,0,1-1.16-.48l-5.79-4.64a1.69,1.69,0,0,1-.6-2.23,1.58,1.58,0,0,1,2.23.05l4.1,3.28,2.1-4.85c.3-.7,1.24-.86,2.09-.35a1.91,1.91,0,0,1,1,2.19l-2.76,6.38a1.09,1.09,0,0,1-1,.65Z" transform="translate(-761.81 -339.39)"/><path class="cls-5" d="M2131.72,983.81c-5.69,0-11.68-4.63-13.34-10.33s1.62-10.32,7.31-10.32,11.69,4.63,13.35,10.32S2137.42,983.81,2131.72,983.81ZM2126.25,965c-4.66,0-7.34,3.79-6,8.44s6.25,8.45,10.9,8.45,7.34-3.79,6-8.45S2130.9,965,2126.25,965Z" transform="translate(-761.81 -339.39)"/><path class="cls-5" d="M2129.2,975.17h0a2.09,2.09,0,0,1-1.88-1.46l-1.29-4.38a1.06,1.06,0,0,1,1-1.46h0a2.12,2.12,0,0,1,1.89,1.46l1.28,4.38A1.06,1.06,0,0,1,2129.2,975.17Z" transform="translate(-761.81 -339.39)"/><path class="cls-5" d="M2130.37,978.62h-.32a1.89,1.89,0,0,1-1.68-1.3h0a1,1,0,0,1,.92-1.31h.32a1.89,1.89,0,0,1,1.68,1.31h0A1,1,0,0,1,2130.37,978.62Z" transform="translate(-761.81 -339.39)"/><path class="cls-15" d="M1137,1269.92s15.57,4,25.47,1,26.93,1.91,29.67,5.52,1.74,5-3.16,6.29-22.23,8.64-33.63,4.36-26.26-4.43-26.26-4.43Z" transform="translate(-761.81 -339.39)"/><path class="cls-16" d="M1002.42,1134.67s17.49,124.31,46.45,135.45c14.29,5.49,77.45,17.94,96.13,19.2,0,0,4.58-3.72,3.46-18.83,0,0-66.16-24.29-75.56-37.5-14-19.66,8.68-80.33-8.87-98.79S1016.9,1107.8,1002.42,1134.67Z" transform="translate(-761.81 -339.39)"/><rect class="cls-8" x="1004.66" y="1415.86" width="24.19" height="211.68" rx="8.43" transform="translate(1271.69 2704.01) rotate(180)"/><path class="cls-8" d="M942.11,1641.46c7.82-16.2,38.27-28.27,74.64-28.27s66.82,12.07,74.64,28.27Z" transform="translate(-761.81 -339.39)"/><rect class="cls-8" x="959.89" y="1578.02" width="113.72" height="8.53" rx="2.24" transform="translate(1271.69 2825.17) rotate(180)"/><path class="cls-17" d="M1008.32,1396.57A219.37,219.37,0,0,0,1025.4,1421c18.8,23.73,39.26,43.29,42.83,61.79a84.57,84.57,0,0,0,3.3,11.84c1.49,4.23,3.33,8.69,5.46,13.29,8,17.33,19.9,36.75,31.81,54.4,20.59,30.5,40,56,40,56l35.51-1.51c-1.42-3.56-16.91-45.69-37.62-97.17-8.42-20.89-17.36-43.12-26-64.56l-3.44-8.54-7.77-19.31c-19.45-48.34-35-86.83-35-86.83s-77.75-29.45-85.82-10.37C982,1345.75,987.44,1361.16,1008.32,1396.57Z" transform="translate(-761.81 -339.39)"/><path class="cls-17" d="M1149.86,1611.85s1.82,29.3,7.49,29.72c.75,0,28.75,0,28.75,0l35.74-.2s-.24-8.62-10.68-10.44-27.93-9.16-34.26-23C1170.24,1593.49,1149.86,1611.85,1149.86,1611.85Z" transform="translate(-761.81 -339.39)"/><path class="cls-17" d="M1067.64,1528.14s-24.69,15.87-22.3,21c.32.68,14,25.13,14,25.13l17.6,31.1s7.41-4.4,3.91-14.41-5.62-28.86,3.35-41.11C1093.61,1537,1067.64,1528.14,1067.64,1528.14Z" transform="translate(-761.81 -339.39)"/><path class="cls-18" d="M1102.42,1327.27s96.23,59.92,107.12,100.77-129.81,128-129.81,128-15.44-13.62-18.16-23.6c0,0,63.6-76.2,77.4-93.28,8.47-10.49-125.28-36.32-141.62-61.74s-10.49-46.8-10.49-46.8Z" transform="translate(-761.81 -339.39)"/><rect class="cls-3" x="909.62" y="1404.46" width="214.25" height="54.47" rx="7.78" transform="translate(1271.69 2524) rotate(180)"/><path class="cls-15" d="M1055.93,1113.36a55,55,0,0,1,14.87,13.48c-23.38,6-62.13-15.62-62.13-15.62s15-10.11,20.62-32.33c.28-1.12.54-2.27.76-3.45a70,70,0,0,0,1.27-12.16l10.74,9.62,17.86,16a154.68,154.68,0,0,1-2.64,18.06C1056.89,1109,1056.44,1111.09,1055.93,1113.36Z" transform="translate(-761.81 -339.39)"/><path class="cls-19" d="M983.91,1223.75c3.35,45-1.06,113.54,2.74,125.4,3.28,10.24,40.64,4.15,55.55.73,5.52-1.26,12.2-3.07,19.11-5.2,19.25-6,40.24-14.48,42.49-20.8a5.4,5.4,0,0,0,.21-.73,5.92,5.92,0,0,0,0-2.65c-.75-3.22-3.65-6.71-4-14.69-.38-8.9-.32-19.39-.65-30.67,0-1.27,0-2.66-.18-3.92v-.47c0-.24,0-.47,0-.72-.32-12.58-1-25.8-1.74-38.92-.49-8.23-1.05-16.39-1.7-24.21-1.68-20.17-3.94-38.12-6.93-49.46-4.9-18.49-15.7-30.55-25.52-39.39l-7.11-6.09c-7.93,1.73-17.3.58-25.78-3.44-9.18-4.36-12.35-7.48-13.95-6.3C995.2,1118.57,980,1168.69,983.91,1223.75Z" transform="translate(-761.81 -339.39)"/><path class="cls-16" d="M1061.31,1344.68c19.25-6,40.24-14.48,42.49-20.8a5.4,5.4,0,0,0,.21-.73c0-.88,0-1.77,0-2.65-.75-3.22-3.65-6.71-4-14.69-.38-8.9-.32-19.39-.65-30.67,0-1.27,0-2.66-.18-3.92v-.47c0-.24,0-.47,0-.72l-72.74-33S1022.19,1295.67,1061.31,1344.68Z" transform="translate(-761.81 -339.39)"/><path class="cls-20" d="M1059.92,1088.9a154.68,154.68,0,0,1-2.64,18.06c-17.44-5.64-25.35-21.39-28-28.07-.75-1.89-1.08-3.05-1.08-3.05l1.84-.4,12-2.54Z" transform="translate(-761.81 -339.39)"/><path class="cls-15" d="M1067,1088.72s-38.31,4.32-40.64-19.58-8.83-39.43,15.53-43.2,30,4.88,32.73,12.67S1076.88,1087,1067,1088.72Z" transform="translate(-761.81 -339.39)"/><text x="-761.81" y="-339.39"/><rect class="cls-1" x="1226.13" y="1211.55" width="3.53" height="92.33" transform="translate(1245.44 2493.82) rotate(-162.01)"/><rect class="cls-1" x="1118.49" y="1295.33" width="96.89" height="5.8" transform="translate(1544.08 2281.69) rotate(-178.78)"/><path class="cls-15" d="M1129,1289s15,5.69,25.2,3.82,26.56,4.87,28.88,8.76,1.17,5.21-3.83,5.91-23,6.13-33.91.62-25.61-7.3-25.61-7.3Z" transform="translate(-761.81 -339.39)"/><path class="cls-19" d="M1010.14,1139.77s3.68,125.48,31.24,139.74c13.59,7,75,26.38,93.42,29.68,0,0,5-3.18,5.52-18.33,0,0-63.09-31.43-71-45.6-11.74-21.09,17.48-78.88,2.07-99.17S1027.5,1114.66,1010.14,1139.77Z" transform="translate(-761.81 -339.39)"/><path class="cls-21" d="M2057.09,1637.58s1.4-11,4.66-17.47,24-2.37,24-2.37,4.15,3.55,5,20.14Z" transform="translate(-761.81 -339.39)"/><path class="cls-21" d="M1986.45,1637.43c4.87-3,2.1-25.15,2.1-25.15s-22.71-18.17-25.83-4.26-21.56,20.15-32.06,21.85c-7.25,1.18-9.49,5.19-10.19,7.56Z" transform="translate(-761.81 -339.39)"/><path class="cls-1" d="M2033.47,1476.09a104.37,104.37,0,0,0-1.67,12.26c-2.11,41.16-34.65,135.28-40.47,137.48-9,3.4-23.19-3.83-30.61-6.19a6.36,6.36,0,0,1-4.46-7.23c16.11-74.08,22-180.76,24.19-243.92,1.09-31.81,6.55-53.78,6.55-53.78s79.36-21.18,79.84,5.61C2067.25,1344,2040.55,1437,2033.47,1476.09Z" transform="translate(-761.81 -339.39)"/><path class="cls-9" d="M2033.47,1476.09l-53-107.6c1.09-31.81,6.55-53.78,6.55-53.78s79.36-21.18,79.84,5.61C2067.25,1344,2040.55,1437,2033.47,1476.09Z" transform="translate(-761.81 -339.39)"/><path class="cls-1" d="M2015.81,1320.41l42,304.08s18.42,4.45,32.75.89c0,0,12.28-161.72,11.26-200.82s8.82-104.62-2.25-111.84S2015.81,1320.41,2015.81,1320.41Z" transform="translate(-761.81 -339.39)"/><path class="cls-12" d="M2102.48,1242.34l5.23,73a5.82,5.82,0,0,1-4.2,6c-5.85,1.7-12.6,2.88-25.61,5.58a248.88,248.88,0,0,1-48.88,4.91c-32.13.2-44.3-10.87-44.3-10.87-1.39,0,.73-6.71,2.63-38.68.65-10.84,1.27-24.57,1.72-41.92.41-15.62.68-34.17.71-56.18,0-26.48,41-55,41.77-55h0c0,3.81,6,10.85,15.26,11.45,11,.72,24.46-4.74,24.46-11.07,0-.06,19.85,31.76,26.9,65.67.9,4.3,1.59,8.84,2.14,13.61l0,.22c.1.87.2,1.75.29,2.63,0,.16,0,.32,0,.47q.14,1.2.24,2.43l.06.7c.07.75.13,1.49.19,2.25a1.23,1.23,0,0,0,0,.2c0,.56.08,1.13.13,1.69l.09,1.21c0,.66.09,1.32.13,2,0,.33.05.67.07,1,0,.64.07,1.27.11,1.92,0,.28,0,.57.05.85.05.93.11,1.86.15,2.8,0,.07,0,.15,0,.22,0,.91.09,1.82.13,2.73l0,.68c0,.86.08,1.72.11,2.59,0,.13,0,.26,0,.38q.14,3.18.25,6.47a1,1,0,0,1,0,.17Z" transform="translate(-761.81 -339.39)"/><path class="cls-12" d="M2031.55,1129.24s-38.11-.32-47.28,12.54-29.28,82-18.78,105.08,30.12-9.53,41-23.63S2031.55,1129.24,2031.55,1129.24Z" transform="translate(-761.81 -339.39)"/><path class="cls-22" d="M2031.16,1123.42l0,3.94s-1.07,12.32,14.1,14.12,26.66-4.8,26.25-14.31c-1.37-7.36-2.87-12.41-3-18.51a42.72,42.72,0,0,1,.54-7.37l-29.39-.59-8.66,1.42Z" transform="translate(-761.81 -339.39)"/><path class="cls-23" d="M2031.05,1102.12l.11,21.3a24.75,24.75,0,0,0,10.6,2.34c13.51,0,22.24-9.91,26.8-17.1a42.72,42.72,0,0,1,.54-7.37l-29.39-.59Z" transform="translate(-761.81 -339.39)"/><path class="cls-22" d="M2071.35,1096.56c-3.41,18.35-27.09,17.75-37.33,16.6-2.88-.32-4.69-.69-4.69-.69-3.25-.87-5.06-6-5.9-12.69-1.67-13.26.44-32.72,2.68-37.7,3.37-7.49,9.72-15.6,33.57-9.75S2075.73,1073,2071.35,1096.56Z" transform="translate(-761.81 -339.39)"/><path class="cls-16" d="M1992.58,1180.81s-14.74,32.54-14.31,42.3a50.86,50.86,0,0,1,14.31,1.84C2004.1,1228.39,1992.58,1180.81,1992.58,1180.81Z" transform="translate(-761.81 -339.39)"/><path class="cls-21" d="M2018.79,1044.61a79,79,0,0,0,22.88-6.19c10-4.37,22.73.44,26.85,2.61a6.1,6.1,0,0,0-1-2.48,5.51,5.51,0,0,1,2.12,3.14c.19.14.28.24.23.27a7.14,7.14,0,0,1,3.44.22s-.94-.13-1.28.48a.56.56,0,0,1-.15.16c15.68,7.58,17.13,32.35,12.08,38.09-6.07,6.89-13.35,22.43-13.35,22.43s-2.65-3.67-1.55-9.74-4.14-6.07-10.76-8.83-1.1-10.48-6.9-15.18-27-1.93-26.76-5.51C2016.75,1061.2,2018.79,1045.41,2018.79,1044.61Z" transform="translate(-761.81 -339.39)"/><path class="cls-16" d="M2076.16,1241.78c-6.23,25-73.51,37.89-88.81,40.52.65-10.84,1.27-24.57,1.72-41.92Z" transform="translate(-761.81 -339.39)"/><path class="cls-22" d="M2061.39,1249.9c.64,0,15-2.14,17.52-3.42s14.29-18,6.61-22.23-28.3,12.83-28.3,12.83Z" transform="translate(-761.81 -339.39)"/><path class="cls-12" d="M1974.31,1254.85s55.37,3,92.53-4.95c0,0,.94-10.74-10.74-15.51,0,0-57.92-12.27-71.83-8.85S1974.31,1254.85,1974.31,1254.85Z" transform="translate(-761.81 -339.39)"/><path class="cls-12" d="M2101.47,1211.4c-11.49,13.85-26.51,25.16-43.07,27.81h0a30.88,30.88,0,0,1-4.1-18.49,37.14,37.14,0,0,1,6-17,37.14,37.14,0,0,0,3.26-6.56c9-23.08,7.7-67.55,7.7-67.55s38.4,4,50.37,21.12C2129,1161.22,2119.63,1189.49,2101.47,1211.4Z" transform="translate(-761.81 -339.39)"/><path class="cls-23" d="M2034,1113.16c-2.88-.32-4.69-.69-4.69-.69-3.25-.87-5.06-6-5.9-12.69,6.09,1.5,8.88,6.21,10,8.21C2034,1108.9,2034.1,1110.92,2034,1113.16Z" transform="translate(-761.81 -339.39)"/><path class="cls-22" d="M2018.55,1123.54s-13.26-21.89-3-22.84,14.46,6,16,8.59-.39,14.13-.39,14.13Z" transform="translate(-761.81 -339.39)"/><path class="cls-12" d="M2069.1,1220a28.19,28.19,0,0,1-2.26,7.6,36.43,36.43,0,0,1-8.44,11.63h0c-34.44-15.55-41.41-68.94-42.58-98.27-.47-11.8,0-19.7,0-19.7,15.54-5.15,19.91,3.79,19.91,3.79s18.34,43.63,27.86,72.15C2067.22,1208.09,2069.57,1216.79,2069.1,1220Z" transform="translate(-761.81 -339.39)"/><path class="cls-16" d="M2101.47,1211.4c-11.49,13.85-26.51,25.16-43.07,27.81h0c-34.44-15.55-41.41-68.94-42.58-98.27,0,0,16.3,59.11,38.48,79.78,4,3.74,8.22,6.21,12.55,6.86,0,0,28-7.91,33.84-15.35C2101.1,1211.69,2101.36,1211.43,2101.47,1211.4Z" transform="translate(-761.81 -339.39)"/><path class="cls-4" d="M2669.48,1587.53c6.72,25.11,56.35,39.88,110.64,48.55h202.59c48.84-23.91,48.77-52.42,52.69-131.16,8.09-162.63-77.46-241.15-115.61-228.19-1.59.54-3.21,1.13-4.85,1.8-11.08,4.46-23.5,12.34-35.58,31.08,0,0-37.92,63.2-69.12,100.89-10,12.14-19.4,21.64-26.56,25.53a1.19,1.19,0,0,1-.25.13c-.38.21-.76.38-1.12.55-16.54,7.57-39.84,23.43-61.13,43.45h0C2688.16,1511.18,2660,1552.14,2669.48,1587.53Z" transform="translate(-761.81 -339.39)"/><path class="cls-3" d="M2721.18,1480.16c28.41,8.73,174.61,50.93,209,6.18,24.91-32.41,9.4-115.43-4.36-169.15-5.64-22-33.79-27-46.11-8.14l-.36.56s-37.92,63.2-69.12,100.89c-9,11.91-17.94,21.09-26.56,25.53a1.19,1.19,0,0,1-.25.13c-.37.21-.76.38-1.12.55C2765.77,1444.28,2742.47,1460.14,2721.18,1480.16Z" transform="translate(-761.81 -339.39)"/><path class="cls-24" d="M2829.93,1275s-10.13,15-15.91,46.51c-5.06,27.6-9.5,37.79-16.81,43.45s-48,22.37-48,22.37l3,7.13s59.68-8.12,66.39-18.1,32.26-68.91,30.28-82.48S2829.93,1275,2829.93,1275Z" transform="translate(-761.81 -339.39)"/><path class="cls-22" d="M2683.79,1604.23c.53,5.82-7.57,7.23-17,7.7s-6.54,2.39-19.41,4.72-18-1.19-18.94-2.93c-.83-1.54,5.15-4,11.52-6.68l2.41-1c7.17-3.15,11.19-9.58,16.79-15.55,5.29-5.65,10.32-23.73,10.32-23.73L2687,1563s-4.91,16.27-6.61,23.22c-1,4.09.48,8.66,1.79,12.14A23.29,23.29,0,0,1,2683.79,1604.23Z" transform="translate(-761.81 -339.39)"/><path class="cls-17" d="M2666.83,1611.93c-9.38.47-6.54,2.39-19.41,4.72s-18-1.19-18.94-2.93c-.83-1.54,5.15-4,11.52-6.68l.1.11a36.61,36.61,0,0,0,19.48.23c8.51-2.3,16.74-7.39,22.6-9a23.29,23.29,0,0,1,1.61,5.88C2684.32,1610.05,2676.22,1611.46,2666.83,1611.93Z" transform="translate(-761.81 -339.39)"/><path class="cls-17" d="M2857.83,1397s-116.14-8.74-138,5.06-56.94,174.53-56.94,174.53,2.17,1.74,7,2.26c4.5.49,14.4-2.16,14.4-2.16s50.4-71.92,53.94-90,2.69-34.29,10.77-34.72,108.85,12.25,124.09-14.6,2.64-53.44,2.64-53.44Z" transform="translate(-761.81 -339.39)"/><path class="cls-22" d="M2728.23,1622.88c.53,5.82-7.57,7.24-16.95,7.71s-6.55,2.39-19.41,4.71-18-1.18-18.95-2.92c-.83-1.54,5.15-4,11.52-6.68l2.41-1c7.17-3.16,11.2-9.59,16.79-15.55,5.29-5.65,10.32-23.74,10.32-23.74l17.48-3.73s-4.91,16.28-6.61,23.23c-1,4.08.48,8.65,1.79,12.13A23,23,0,0,1,2728.23,1622.88Z" transform="translate(-761.81 -339.39)"/><path class="cls-17" d="M2711.28,1630.59c-9.39.46-6.55,2.39-19.41,4.71s-18-1.18-18.95-2.92c-.83-1.54,5.15-4,11.52-6.68l.1.11a36.61,36.61,0,0,0,19.48.23c8.51-2.31,16.74-7.39,22.6-9a23,23,0,0,1,1.61,5.88C2728.76,1628.7,2720.66,1630.12,2711.28,1630.59Z" transform="translate(-761.81 -339.39)"/><path class="cls-18" d="M2880.58,1404.17s-103.17,4.88-124.48,19.52-50.1,176.62-50.1,176.62,2.23,1.65,7.08,2c4.51.31,14.3-2.71,14.3-2.71s47.56-73.83,50.4-92.07,1.35-34.36,9.41-35.11,109.24,8,123.43-19.42S2880.58,1404.17,2880.58,1404.17Z" transform="translate(-761.81 -339.39)"/><path class="cls-17" d="M2845.26,1266.74c-2-3.51-4.4-9.83-6.13-21.25.23,1.13,3.18,15.49,9.3,23.32,23.89,13.51,71.12,60.77,70.89,70.34,0,0,13.71-27.24,14-27.42,0,0,26.09-38.16-9.09-56.67-17.88-9.41-18.69-23-18.76-34.78s-8.85-62.12-42.37-46.57c0,0-5.68-2.09-8.13-1.55a6.77,6.77,0,0,1,3.14,1.24c-4,0-9.69.71-14.26,3.73C2831.68,1185.14,2824.68,1250.19,2845.26,1266.74Z" transform="translate(-761.81 -339.39)"/><path class="cls-22" d="M2884.92,1257.73a116.51,116.51,0,0,0-19.22,0,62,62,0,0,0-16.67,4.18c-9.1,3.81-8.14,19.91,10.94,16.92S2886.25,1262.5,2884.92,1257.73Z" transform="translate(-761.81 -339.39)"/><path class="cls-22" d="M2849.83,1269.47c-.11.06-2.72,13.85,9.77,13.3,8.21-.36,25.89-10.29,24.33-17.31-.74-3.34-6.94-12-8.19-31.76l-1.49.39-25.1,6.74s1.11,8,1.63,15.51C2851.22,1262.67,2851.24,1268.7,2849.83,1269.47Z" transform="translate(-761.81 -339.39)"/><path class="cls-24" d="M2849.15,1240.83s1.11,8,1.63,15.51c14.21-1.35,20.87-14.84,23.47-22.25Z" transform="translate(-761.81 -339.39)"/><path class="cls-17" d="M2876.69,1231.15s6.68-12.28,7.8-22.48c.8-7.28-4.65-33.71-31.2-28.08a36.44,36.44,0,0,0-14.72,6.71c-5.55,4.32-13.39,13.37-2.44,36l3,7.7Z" transform="translate(-761.81 -339.39)"/><path class="cls-22" d="M2844.87,1248.29s33.72-1.69,32.34-22.67,2.05-35.33-19.53-35.14-25.24,8.47-26.49,15.58S2836.06,1248.18,2844.87,1248.29Z" transform="translate(-761.81 -339.39)"/><path class="cls-17" d="M2842.3,1191s10.86,24,25.26,26.69,20.28-1.5,20.28-1.5a40.23,40.23,0,0,1-14.69-22.81S2848.48,1178.81,2842.3,1191Z" transform="translate(-761.81 -339.39)"/><path class="cls-17" d="M2844.72,1192.83s-6.52,6-7.84,11.41-1.35,16.5-4.58,16.34c0,0-8.06-16.26-.88-26.25C2839,1183.74,2844.72,1192.83,2844.72,1192.83Z" transform="translate(-761.81 -339.39)"/><path class="cls-2" d="M2811.13,1398.72c2.73,3.26,11.25,4.27,20.36,5.76,7.16,1.19,14.69,2.67,20,5.81,12.16,7.14,51.87,31.26,63.51,30.16,4.51-.42,3.66-9,.93-20.47-4.3-18-13.31-43.11-13.31-54,0-6-2-20-4.62-36.12-.22-1.3-.43-2.61-.65-3.93-5.23-31.29-12.47-68.19-12.47-68.19s-8.08,17.62-23.82,17.62-12.07-13.43-12.07-13.43-14.36,1.68-17.75,5.34-12,19.45-13.71,23.75c0,0-.34,5.48,13.23,8.09,0,0-3.31,14.88-3.7,24.8-.29,7.33,5,30.26,6.52,44.52.54,5,.61,9-.21,10.81-1,2.31-4.45,4.6-8.31,6.85C2817.43,1390.55,2807.9,1394.84,2811.13,1398.72Z" transform="translate(-761.81 -339.39)"/><path class="cls-25" d="M2825.1,1386.08c-8.71,14.85,23.62,19.32,29,22.46,12.16,7.13,49.33,33,61,31.91,4.51-.42,3.66-9,.93-20.47-4.3-18-13.31-43.11-13.31-54,0-6-2-20-4.62-36.12l-14-13.45s-15,38.79-29.32,45.15a120.73,120.73,0,0,1-21.09,6.87c.54,5,.61,9-.21,10.81C2832.36,1381.54,2829,1383.83,2825.1,1386.08Z" transform="translate(-761.81 -339.39)"/><path class="cls-22" d="M2889.22,1269.35s12-7.28,23.56,6.52-8.23,112.44-25.39,117.51c-19.06,5.63-74.13-.9-74.13-.9l1.06-8.61s58.62-11.23,61.06-14.37S2883.13,1270.94,2889.22,1269.35Z" transform="translate(-761.81 -339.39)"/><path class="cls-2" d="M2884.92,1257.73s24.6,2.22,31.74,10.31,9.23,30,9.23,30-21.66,17.49-47.76,10.7Z" transform="translate(-761.81 -339.39)"/><rect class="cls-16" x="2775.02" y="1397.09" width="32.49" height="3.84" transform="translate(4820.72 2458.63) rotate(180)"/><path class="cls-16" d="M2781.92,1400.4c-.32-1.27-29.87-47.67-29.87-47.67H2686.3l33,46.43Z" transform="translate(-761.81 -339.39)"/><path class="cls-19" d="M2779.15,1400.93c-.31-1.27-30-48.2-30-48.2H2686.3l31.37,48.2Z" transform="translate(-761.81 -339.39)"/><path class="cls-13" d="M2723.71,1377a5.26,5.26,0,0,0,4.58,3.4c1.88,0,2.88-1.52,2.23-3.4a5.27,5.27,0,0,0-4.58-3.41C2724.06,1373.58,2723.07,1375.11,2723.71,1377Z" transform="translate(-761.81 -339.39)"/><path class="cls-22" d="M2819.11,1383.36s-19.09-3.69-21.24-2.77-14.17,11.7-12.93,13.86,6.15,3.69,11.69,1.84,17.55-2.77,19.71-5.54S2819.11,1383.36,2819.11,1383.36Z" transform="translate(-761.81 -339.39)"/><polygon class="cls-25" points="1650.34 509.02 1049.74 509.02 1003.71 358.29 1604.31 358.29 1650.34 509.02"/><path class="cls-13" d="M2343.27,748.65l5.5,18c2.42,7.94-2.08,14.43-10,14.43H1841.17c-7.94,0-16.41-6.49-18.83-14.43l-5.51-18c-2.42-7.94,2.09-14.43,10-14.43h497.59C2332.37,734.22,2340.84,740.71,2343.27,748.65Z" transform="translate(-761.81 -339.39)"/><path class="cls-26" d="M2243.62,752.41H2236l-.72-2.34H2246l.61,2-2.83,13.16h-3Z" transform="translate(-761.81 -339.39)"/><path class="cls-26" d="M2250.14,757.66c-1.33-4.34.24-7.85,4.24-7.85s7.65,3.47,9,7.85-.25,7.85-4.24,7.85S2251.47,762,2250.14,757.66Zm10.47,0c-.91-3-3.2-5.44-5.54-5.44s-3.11,2.38-2.18,5.44,3.18,5.44,5.55,5.44S2261.54,760.7,2260.61,757.66Z" transform="translate(-761.81 -339.39)"/><path class="cls-26" d="M2264.47,753.78c-.65-2.11.26-3.89,2.41-3.89a5.33,5.33,0,0,1,4.74,3.89c.65,2.1-.26,3.88-2.41,3.88A5.33,5.33,0,0,1,2264.47,753.78Zm11.51-3.71h2.15l-6.47,15.18h-2.15Zm-6.29,3.71a2.9,2.9,0,0,0-2.34-2.22c-1,0-1.32,1-.95,2.22a2.88,2.88,0,0,0,2.34,2.21C2269.76,756,2270.06,755,2269.69,753.78Zm6.32,7.76c-.64-2.1.27-3.88,2.42-3.88a5.34,5.34,0,0,1,4.74,3.88c.64,2.11-.27,3.88-2.42,3.88A5.33,5.33,0,0,1,2276,761.54Zm5.23,0a2.9,2.9,0,0,0-2.35-2.21c-1,0-1.32,1-.95,2.21a2.87,2.87,0,0,0,2.35,2.21C2281.31,763.75,2281.61,762.76,2281.24,761.54Z" transform="translate(-761.81 -339.39)"/><path class="cls-16" d="M2163.31,734.22l14.32,46.88H1841.17c-6.61,0-13.59-4.51-17.13-10.59a17.71,17.71,0,0,1-1.7-3.84l-5.51-18c-2.42-7.94,2.09-14.43,10-14.43Z" transform="translate(-761.81 -339.39)"/><path class="cls-1" d="M1886.41,734.22l-14.19,46.88h-31c-6.61,0-13.59-4.51-17.13-10.59l11-36.29Z" transform="translate(-761.81 -339.39)"/><polygon class="cls-1" points="1212.65 394.83 1198.46 441.71 1147.08 441.71 1161.27 394.83 1212.65 394.83"/><polygon class="cls-1" points="1300.71 394.83 1286.53 441.71 1235.13 441.71 1249.32 394.83 1300.71 394.83"/><polygon class="cls-1" points="1388.77 394.83 1374.59 441.71 1323.2 441.71 1337.38 394.83 1388.77 394.83"/><polygon class="cls-26" points="1170.61 469.48 1080.75 469.48 1078.86 463.28 1168.72 463.28 1170.61 469.48"/><polygon class="cls-26" points="1151.34 486.81 1086.04 486.81 1084.15 480.61 1149.45 480.61 1151.34 486.81"/><polygon class="cls-26" points="1194.4 486.81 1155.37 486.81 1153.47 480.61 1192.5 480.61 1194.4 486.81"/><polygon class="cls-26" points="1260.77 486.81 1201.14 486.81 1199.25 480.61 1258.88 480.61 1260.77 486.81"/><polygon class="cls-26" points="1204.58 469.48 1177.37 469.48 1175.48 463.28 1202.69 463.28 1204.58 469.48"/><polygon class="cls-26" points="1312.83 469.48 1213.89 469.48 1212 463.28 1310.94 463.28 1312.83 469.48"/><polygon class="cls-25" points="839.67 760.52 417.15 760.52 351.48 545.46 773.99 545.46 839.67 760.52"/><polygon class="cls-13" points="780.03 652.99 411.12 652.99 383.2 561.59 752.12 561.59 780.03 652.99"/><polygon class="cls-9" points="471.77 580.16 409.28 580.16 407.79 575.29 470.29 575.29 471.77 580.16"/><polygon class="cls-9" points="538.62 580.16 486.64 580.16 485.15 575.29 537.13 575.29 538.62 580.16"/><polygon class="cls-9" points="659.58 580.16 552.16 580.16 550.67 575.29 658.09 575.29 659.58 580.16"/><polygon class="cls-9" points="477.11 597.63 414.62 597.63 413.13 592.76 475.62 592.76 477.11 597.63"/><polygon class="cls-9" points="543.95 597.63 491.98 597.63 490.49 592.76 542.46 592.76 543.95 597.63"/><polygon class="cls-9" points="605.33 597.63 553.36 597.63 551.87 592.76 603.85 592.76 605.33 597.63"/><polygon class="cls-9" points="728.5 599.66 621.08 599.66 619.59 594.79 727.01 594.79 728.5 599.66"/><polygon class="cls-9" points="483.87 619.78 421.38 619.78 419.89 614.91 482.38 614.91 483.87 619.78"/><polygon class="cls-9" points="550.72 619.78 498.74 619.78 497.25 614.91 549.23 614.91 550.72 619.78"/><polygon class="cls-9" points="671.68 619.78 564.26 619.78 562.77 614.91 670.19 614.91 671.68 619.78"/><polygon class="cls-9" points="489.21 637.25 426.72 637.25 425.23 632.38 487.72 632.38 489.21 637.25"/><polygon class="cls-9" points="556.05 637.25 504.08 637.25 502.59 632.38 554.56 632.38 556.05 637.25"/><polygon class="cls-9" points="617.43 637.25 565.46 637.25 563.97 632.38 615.94 632.38 617.43 637.25"/><polygon class="cls-9" points="740.6 639.29 633.18 639.29 631.69 634.41 739.11 634.41 740.6 639.29"/><path class="cls-1" d="M1420.3,1068.09c-14.32,0-29.53-11.65-33.9-26s3.72-26,18-26,29.53,11.65,33.9,26S1434.62,1068.09,1420.3,1068.09Zm-14.41-47.19c-11.71,0-18.32,9.52-14.75,21.22s16,21.23,27.71,21.23,18.32-9.52,14.75-21.23S1417.59,1020.9,1405.89,1020.9Z" transform="translate(-761.81 -339.39)"/><path class="cls-1" d="M1415.88,1055.33a5.46,5.46,0,0,1-2.93-1.21l-14.73-11.67c-2-1.57-2.69-4.07-1.58-5.58s3.63-1.46,5.63.12l10.4,8.25,5.12-12.21c.74-1.76,3.09-2.15,5.25-.88s3.31,3.75,2.56,5.52l-6.72,16a2.73,2.73,0,0,1-2.43,1.63A3.62,3.62,0,0,1,1415.88,1055.33Z" transform="translate(-761.81 -339.39)"/><path class="cls-1" d="M1346,1068.09c-14.31,0-29.52-11.65-33.9-26s3.72-26,18-26,29.53,11.65,33.9,26S1360.31,1068.09,1346,1068.09Zm-14.41-47.19c-11.7,0-18.32,9.52-14.74,21.22s16,21.23,27.71,21.23,18.32-9.52,14.74-21.23S1343.29,1020.9,1331.58,1020.9Z" transform="translate(-761.81 -339.39)"/><path class="cls-1" d="M1341.57,1055.33a5.46,5.46,0,0,1-2.93-1.21l-14.72-11.67c-2-1.57-2.7-4.07-1.59-5.58s3.64-1.46,5.63.12l10.41,8.25,5.11-12.21c.74-1.76,3.09-2.15,5.25-.88s3.31,3.75,2.57,5.52l-6.73,16a2.71,2.71,0,0,1-2.43,1.63A3.62,3.62,0,0,1,1341.57,1055.33Z" transform="translate(-761.81 -339.39)"/><path class="cls-1" d="M1269,1068.09c-14.32,0-29.53-11.65-33.9-26s3.72-26,18-26,29.53,11.65,33.9,26S1283.34,1068.09,1269,1068.09Zm-14.42-47.19c-11.7,0-18.32,9.52-14.74,21.22s16,21.23,27.71,21.23,18.32-9.52,14.74-21.23S1266.32,1020.9,1254.61,1020.9Z" transform="translate(-761.81 -339.39)"/><path class="cls-1" d="M1264.6,1055.33a5.49,5.49,0,0,1-2.93-1.21L1247,1042.45c-2-1.57-2.7-4.07-1.58-5.58s3.63-1.46,5.62.12l10.41,8.25,5.11-12.21c.74-1.76,3.09-2.15,5.25-.88s3.31,3.75,2.57,5.52l-6.73,16a2.7,2.7,0,0,1-2.43,1.63A3.64,3.64,0,0,1,1264.6,1055.33Z" transform="translate(-761.81 -339.39)"/><path class="cls-5" d="M1492,1068.09c-14.32,0-29.53-11.65-33.9-26s3.72-26,18-26,29.53,11.65,33.9,26S1506.31,1068.09,1492,1068.09Zm-14.41-47.19c-11.71,0-18.32,9.52-14.75,21.22s16,21.23,27.71,21.23,18.32-9.52,14.75-21.23S1489.28,1020.9,1477.58,1020.9Z" transform="translate(-761.81 -339.39)"/><path class="cls-5" d="M1485.36,1046.37h0a5.42,5.42,0,0,1-4.8-3.67l-3.36-11a2.63,2.63,0,0,1,2.55-3.67h0a5.4,5.4,0,0,1,4.79,3.67l3.37,11A2.63,2.63,0,0,1,1485.36,1046.37Z" transform="translate(-761.81 -339.39)"/><path class="cls-5" d="M1488.4,1055h-.79a4.83,4.83,0,0,1-4.28-3.27h0a2.35,2.35,0,0,1,2.28-3.28h.79a4.82,4.82,0,0,1,4.28,3.28h0A2.35,2.35,0,0,1,1488.4,1055Z" transform="translate(-761.81 -339.39)"/><path class="cls-3" d="M2501.66,1033.08s53.44,55.41,56,76.26-25.6,53.41-25.6,53.41Z" transform="translate(-761.81 -339.39)"/><path class="cls-17" d="M2477.52,1607.3s-1.89,29.39-7.58,29.8c-.75.06-28.84,0-28.84,0l-35.85-.29s.25-8.64,10.73-10.44,28.05-9.13,34.42-23C2457.11,1588.84,2477.52,1607.3,2477.52,1607.3Z" transform="translate(-761.81 -339.39)"/><path class="cls-17" d="M2557.37,1607.48s-1.88,29.39-7.57,29.8c-.76,0-28.84,0-28.84,0l-35.86-.29s.26-8.63,10.74-10.44,28-9.13,34.42-23C2537,1589,2557.37,1607.48,2557.37,1607.48Z" transform="translate(-761.81 -339.39)"/><path class="cls-17" d="M2438.49,1291.32s9.25,60,44,166.53,39.42,152.65,39.42,152.65l37.53-1s.57-116.35-15.44-169.92-3.06-193-3.06-193Z" transform="translate(-761.81 -339.39)"/><path class="cls-18" d="M2420.32,1249.62S2418.8,1340,2434.2,1451s10,158.09,10,158.09l37.45,1.33s22.62-111,16.32-166.51S2529,1253.38,2529,1253.38Z" transform="translate(-761.81 -339.39)"/><path class="cls-22" d="M2493.28,1038.29l-20,13-28.83-5.44c.41-2.33,2.33-12,4.09-20.71.1-.51.21-1,.31-1.53l2.79-13.82,27-11.82,10.06-4.41c0,.15-.8,8.25-.91,9.43C2485.84,1024,2493.28,1038.29,2493.28,1038.29Z" transform="translate(-761.81 -339.39)"/><path class="cls-3" d="M2451.89,1031.6c.56-.24,34.75-10.25,38.46-9s5.89,8.42,5.89,8.42l-55.91,12.51S2444.75,1034.59,2451.89,1031.6Z" transform="translate(-761.81 -339.39)"/><path class="cls-4" d="M2543.4,1261.05c-5.85,26.4-102.24,29.33-127,5.29-2.82-2.74-2.93-15.46-1.83-32.6,2.16-33.5,9-83.88,9.28-109.63a204.49,204.49,0,0,1,4.19-36.69,298.17,298.17,0,0,1,12.33-43.9s47.11-15.12,55.91-12.51C2538.65,1043.57,2549.25,1234.64,2543.4,1261.05Z" transform="translate(-761.81 -339.39)"/><path class="cls-3" d="M2414.53,1233.74c2.16-33.5,9-83.88,9.28-109.63a204.49,204.49,0,0,1,4.19-36.69l28.34-4.94S2483.78,1195.63,2414.53,1233.74Z" transform="translate(-761.81 -339.39)"/><path class="cls-22" d="M2430,1187.07a6.67,6.67,0,0,1-2.14,7.71c-4.06,3.09-6.7,8.1-5.78,11.77s9.8,9.68,12.89,8.72,9.37-5.78,8.69-7.71,4.26-17-3.24-22.78S2430,1187.07,2430,1187.07Z" transform="translate(-761.81 -339.39)"/><path class="cls-4" d="M2462,1036.79s-27.63,5.1-49.71,37.49-36.61,56.46-32.58,68.16,40.89,52.32,47.26,52.33,16.66-4.6,17.27-15c0,0-25.94-39-20.8-44.88,2.2-2.49,33.84-28.06,38.32-16.47C2469.15,1137.58,2462,1036.79,2462,1036.79Z" transform="translate(-761.81 -339.39)"/><path class="cls-27" d="M2485.75,1003.4c-5.94,10-28,18.62-37.19,21.78.1-.51.21-1,.31-1.53l2.79-13.82,27-11.82C2484.58,997.94,2488.2,999.28,2485.75,1003.4Z" transform="translate(-761.81 -339.39)"/><path class="cls-22" d="M2441.52,1008.17s43.35,13.63,51.42-13.5,19.11-43.65-8.23-53.49-35.83-1.11-40.72,7.29S2430.45,1003.93,2441.52,1008.17Z" transform="translate(-761.81 -339.39)"/><path class="cls-17" d="M2445.69,945.86s2.7,31.6,9.24,30.24,12.46-2.36,11.49,7.16-10.06,20.5,10.07,22.23,49.18-50.14,43.68-60C2504.27,917.11,2422.7,911.21,2445.69,945.86Z" transform="translate(-761.81 -339.39)"/><g class="cls-28"><path class="cls-8" d="M1544.52,712.05v-7.7h7.93v7.7Z" transform="translate(-761.81 -339.39)"/><path class="cls-8" d="M1544.52,696.48v-7.7h7.93v7.7Z" transform="translate(-761.81 -339.39)"/><path class="cls-8" d="M1544.52,680.91v-7.7h7.93v7.7Z" transform="translate(-761.81 -339.39)"/><path class="cls-8" d="M1544.52,665.35v-7.7h7.93v7.7Z" transform="translate(-761.81 -339.39)"/><path class="cls-8" d="M1544.52,649.78v-7.7h7.93v7.7Z" transform="translate(-761.81 -339.39)"/><path class="cls-8" d="M1544.52,634.21v-7.7h7.93v7.7Z" transform="translate(-761.81 -339.39)"/><path class="cls-8" d="M1544.52,618.64v-7.7h7.93v7.7Z" transform="translate(-761.81 -339.39)"/><path class="cls-8" d="M1544.52,603.07v-7.7h7.93v7.7Z" transform="translate(-761.81 -339.39)"/><path class="cls-8" d="M1544.52,587.5v-7.69h7.93v7.69Z" transform="translate(-761.81 -339.39)"/><path class="cls-8" d="M1544.52,571.94v-7.7h7.93v7.7Z" transform="translate(-761.81 -339.39)"/><path class="cls-8" d="M1544.52,556.37v-7.7h7.93v7.7Z" transform="translate(-761.81 -339.39)"/><path class="cls-8" d="M1544.52,540.8v-7.7h7.93v7.7Z" transform="translate(-761.81 -339.39)"/><path class="cls-8" d="M1544.52,525.23v-7.7h7.93v7.7Z" transform="translate(-761.81 -339.39)"/><path class="cls-8" d="M1544.52,509.66V502h7.93v7.69Z" transform="translate(-761.81 -339.39)"/><path class="cls-8" d="M1544.52,494.1v-7.7h7.93v7.7Z" transform="translate(-761.81 -339.39)"/><path class="cls-8" d="M1544.52,478.53v-7.7h7.93v7.7Z" transform="translate(-761.81 -339.39)"/><path class="cls-8" d="M1544.52,463v-7.7h7.93V463Z" transform="translate(-761.81 -339.39)"/><path class="cls-8" d="M1544.52,447.39v-7.7h7.93v7.7Z" transform="translate(-761.81 -339.39)"/></g><g class="cls-28"><path class="cls-8" d="M1520.28,618.64v-7.7h7.93v7.7Z" transform="translate(-761.81 -339.39)"/><path class="cls-8" d="M1520.28,603.07v-7.7h7.93v7.7Z" transform="translate(-761.81 -339.39)"/><path class="cls-8" d="M1520.28,587.5v-7.69h7.93v7.69Z" transform="translate(-761.81 -339.39)"/><path class="cls-8" d="M1520.28,571.94v-7.7h7.93v7.7Z" transform="translate(-761.81 -339.39)"/><path class="cls-8" d="M1520.28,556.37v-7.7h7.93v7.7Z" transform="translate(-761.81 -339.39)"/><path class="cls-8" d="M1520.28,540.8v-7.7h7.93v7.7Z" transform="translate(-761.81 -339.39)"/><path class="cls-8" d="M1520.28,525.23v-7.7h7.93v7.7Z" transform="translate(-761.81 -339.39)"/><path class="cls-8" d="M1520.28,509.66V502h7.93v7.69Z" transform="translate(-761.81 -339.39)"/><path class="cls-8" d="M1520.28,494.1v-7.7h7.93v7.7Z" transform="translate(-761.81 -339.39)"/><path class="cls-8" d="M1520.28,478.53v-7.7h7.93v7.7Z" transform="translate(-761.81 -339.39)"/><path class="cls-8" d="M1520.28,463v-7.7h7.93V463Z" transform="translate(-761.81 -339.39)"/><path class="cls-8" d="M1520.28,447.39v-7.7h7.93v7.7Z" transform="translate(-761.81 -339.39)"/></g><g class="cls-28"><path class="cls-8" d="M1495.58,712.05v-7.7h7.93v7.7Z" transform="translate(-761.81 -339.39)"/><path class="cls-8" d="M1495.58,696.48v-7.7h7.93v7.7Z" transform="translate(-761.81 -339.39)"/><path class="cls-8" d="M1495.58,680.91v-7.7h7.93v7.7Z" transform="translate(-761.81 -339.39)"/><path class="cls-8" d="M1495.58,665.35v-7.7h7.93v7.7Z" transform="translate(-761.81 -339.39)"/><path class="cls-8" d="M1495.58,649.78v-7.7h7.93v7.7Z" transform="translate(-761.81 -339.39)"/><path class="cls-8" d="M1495.58,634.21v-7.7h7.93v7.7Z" transform="translate(-761.81 -339.39)"/><path class="cls-8" d="M1495.58,618.64v-7.7h7.93v7.7Z" transform="translate(-761.81 -339.39)"/><path class="cls-8" d="M1495.58,603.07v-7.7h7.93v7.7Z" transform="translate(-761.81 -339.39)"/><path class="cls-8" d="M1495.58,587.5v-7.69h7.93v7.69Z" transform="translate(-761.81 -339.39)"/><path class="cls-8" d="M1495.58,571.94v-7.7h7.93v7.7Z" transform="translate(-761.81 -339.39)"/><path class="cls-8" d="M1495.58,556.37v-7.7h7.93v7.7Z" transform="translate(-761.81 -339.39)"/><path class="cls-8" d="M1495.58,540.8v-7.7h7.93v7.7Z" transform="translate(-761.81 -339.39)"/><path class="cls-8" d="M1495.58,525.23v-7.7h7.93v7.7Z" transform="translate(-761.81 -339.39)"/><path class="cls-8" d="M1495.58,509.66V502h7.93v7.69Z" transform="translate(-761.81 -339.39)"/><path class="cls-8" d="M1495.58,494.1v-7.7h7.93v7.7Z" transform="translate(-761.81 -339.39)"/><path class="cls-8" d="M1495.58,478.53v-7.7h7.93v7.7Z" transform="translate(-761.81 -339.39)"/><path class="cls-8" d="M1495.58,463v-7.7h7.93V463Z" transform="translate(-761.81 -339.39)"/><path class="cls-8" d="M1495.58,447.39v-7.7h7.93v7.7Z" transform="translate(-761.81 -339.39)"/></g><g class="cls-28"><path class="cls-8" d="M1474.79,743.19v-7.7h7.93v7.7Z" transform="translate(-761.81 -339.39)"/><path class="cls-8" d="M1474.79,727.62v-7.7h7.93v7.7Z" transform="translate(-761.81 -339.39)"/><path class="cls-8" d="M1474.79,712.05v-7.7h7.93v7.7Z" transform="translate(-761.81 -339.39)"/><path class="cls-8" d="M1474.79,696.48v-7.7h7.93v7.7Z" transform="translate(-761.81 -339.39)"/><path class="cls-8" d="M1474.79,680.91v-7.7h7.93v7.7Z" transform="translate(-761.81 -339.39)"/><path class="cls-8" d="M1474.79,665.35v-7.7h7.93v7.7Z" transform="translate(-761.81 -339.39)"/><path class="cls-8" d="M1474.79,649.78v-7.7h7.93v7.7Z" transform="translate(-761.81 -339.39)"/><path class="cls-8" d="M1474.79,634.21v-7.7h7.93v7.7Z" transform="translate(-761.81 -339.39)"/><path class="cls-8" d="M1474.79,618.64v-7.7h7.93v7.7Z" transform="translate(-761.81 -339.39)"/><path class="cls-8" d="M1474.79,603.07v-7.7h7.93v7.7Z" transform="translate(-761.81 -339.39)"/><path class="cls-8" d="M1474.79,587.5v-7.69h7.93v7.69Z" transform="translate(-761.81 -339.39)"/><path class="cls-8" d="M1474.79,571.94v-7.7h7.93v7.7Z" transform="translate(-761.81 -339.39)"/><path class="cls-8" d="M1474.79,556.37v-7.7h7.93v7.7Z" transform="translate(-761.81 -339.39)"/><path class="cls-8" d="M1474.79,540.8v-7.7h7.93v7.7Z" transform="translate(-761.81 -339.39)"/><path class="cls-8" d="M1474.79,525.23v-7.7h7.93v7.7Z" transform="translate(-761.81 -339.39)"/><path class="cls-8" d="M1474.79,509.66V502h7.93v7.69Z" transform="translate(-761.81 -339.39)"/><path class="cls-8" d="M1474.79,494.1v-7.7h7.93v7.7Z" transform="translate(-761.81 -339.39)"/><path class="cls-8" d="M1474.79,478.53v-7.7h7.93v7.7Z" transform="translate(-761.81 -339.39)"/><path class="cls-8" d="M1474.79,463v-7.7h7.93V463Z" transform="translate(-761.81 -339.39)"/><path class="cls-8" d="M1474.79,447.39v-7.7h7.93v7.7Z" transform="translate(-761.81 -339.39)"/></g><g class="cls-28"><path class="cls-8" d="M1447.35,603.07v-7.7h7.93v7.7Z" transform="translate(-761.81 -339.39)"/><path class="cls-8" d="M1447.35,587.5v-7.69h7.93v7.69Z" transform="translate(-761.81 -339.39)"/><path class="cls-8" d="M1447.35,571.94v-7.7h7.93v7.7Z" transform="translate(-761.81 -339.39)"/><path class="cls-8" d="M1447.35,556.37v-7.7h7.93v7.7Z" transform="translate(-761.81 -339.39)"/><path class="cls-8" d="M1447.35,540.8v-7.7h7.93v7.7Z" transform="translate(-761.81 -339.39)"/><path class="cls-8" d="M1447.35,525.23v-7.7h7.93v7.7Z" transform="translate(-761.81 -339.39)"/><path class="cls-8" d="M1447.35,509.66V502h7.93v7.69Z" transform="translate(-761.81 -339.39)"/><path class="cls-8" d="M1447.35,494.1v-7.7h7.93v7.7Z" transform="translate(-761.81 -339.39)"/><path class="cls-8" d="M1447.35,478.53v-7.7h7.93v7.7Z" transform="translate(-761.81 -339.39)"/><path class="cls-8" d="M1447.35,463v-7.7h7.93V463Z" transform="translate(-761.81 -339.39)"/><path class="cls-8" d="M1447.35,447.39v-7.7h7.93v7.7Z" transform="translate(-761.81 -339.39)"/></g><g class="cls-28"><path class="cls-13" d="M2401.68,351.44h-12.47V339.39h12.47Z" transform="translate(-761.81 -339.39)"/><path class="cls-13" d="M2376.46,351.44H2364V339.39h12.47Z" transform="translate(-761.81 -339.39)"/><path class="cls-13" d="M2351.24,351.44h-12.47V339.39h12.47Z" transform="translate(-761.81 -339.39)"/><path class="cls-13" d="M2326,351.44h-12.48V339.39H2326Z" transform="translate(-761.81 -339.39)"/><path class="cls-13" d="M2300.8,351.44h-12.48V339.39h12.48Z" transform="translate(-761.81 -339.39)"/><path class="cls-13" d="M2275.57,351.44H2263.1V339.39h12.47Z" transform="translate(-761.81 -339.39)"/><path class="cls-13" d="M2250.35,351.44h-12.47V339.39h12.47Z" transform="translate(-761.81 -339.39)"/><path class="cls-13" d="M2225.13,351.44h-12.47V339.39h12.47Z" transform="translate(-761.81 -339.39)"/><path class="cls-13" d="M2199.91,351.44h-12.47V339.39h12.47Z" transform="translate(-761.81 -339.39)"/><path class="cls-13" d="M2174.69,351.44h-12.47V339.39h12.47Z" transform="translate(-761.81 -339.39)"/><path class="cls-13" d="M2149.47,351.44H2137V339.39h12.47Z" transform="translate(-761.81 -339.39)"/><path class="cls-13" d="M2124.25,351.44h-12.47V339.39h12.47Z" transform="translate(-761.81 -339.39)"/><path class="cls-13" d="M2099,351.44h-12.47V339.39H2099Z" transform="translate(-761.81 -339.39)"/><path class="cls-13" d="M2073.81,351.44h-12.47V339.39h12.47Z" transform="translate(-761.81 -339.39)"/><path class="cls-13" d="M2048.59,351.44h-12.47V339.39h12.47Z" transform="translate(-761.81 -339.39)"/><path class="cls-13" d="M2023.37,351.44H2010.9V339.39h12.47Z" transform="translate(-761.81 -339.39)"/><path class="cls-13" d="M1998.15,351.44h-12.47V339.39h12.47Z" transform="translate(-761.81 -339.39)"/><path class="cls-13" d="M1972.93,351.44h-12.47V339.39h12.47Z" transform="translate(-761.81 -339.39)"/></g><g class="cls-28"><path class="cls-13" d="M2250.35,388.28h-12.47v-12h12.47Z" transform="translate(-761.81 -339.39)"/><path class="cls-13" d="M2225.13,388.28h-12.47v-12h12.47Z" transform="translate(-761.81 -339.39)"/><path class="cls-13" d="M2199.91,388.28h-12.47v-12h12.47Z" transform="translate(-761.81 -339.39)"/><path class="cls-13" d="M2174.69,388.28h-12.47v-12h12.47Z" transform="translate(-761.81 -339.39)"/><path class="cls-13" d="M2149.47,388.28H2137v-12h12.47Z" transform="translate(-761.81 -339.39)"/><path class="cls-13" d="M2124.25,388.28h-12.47v-12h12.47Z" transform="translate(-761.81 -339.39)"/><path class="cls-13" d="M2099,388.28h-12.47v-12H2099Z" transform="translate(-761.81 -339.39)"/><path class="cls-13" d="M2073.81,388.28h-12.47v-12h12.47Z" transform="translate(-761.81 -339.39)"/><path class="cls-13" d="M2048.59,388.28h-12.47v-12h12.47Z" transform="translate(-761.81 -339.39)"/><path class="cls-13" d="M2023.37,388.28H2010.9v-12h12.47Z" transform="translate(-761.81 -339.39)"/><path class="cls-13" d="M1998.15,388.28h-12.47v-12h12.47Z" transform="translate(-761.81 -339.39)"/><path class="cls-13" d="M1972.93,388.28h-12.47v-12h12.47Z" transform="translate(-761.81 -339.39)"/></g><g class="cls-28"><path class="cls-13" d="M2401.68,425.81h-12.47V413.76h12.47Z" transform="translate(-761.81 -339.39)"/><path class="cls-13" d="M2376.46,425.81H2364V413.76h12.47Z" transform="translate(-761.81 -339.39)"/><path class="cls-13" d="M2351.24,425.81h-12.47V413.76h12.47Z" transform="translate(-761.81 -339.39)"/><path class="cls-13" d="M2326,425.81h-12.48V413.76H2326Z" transform="translate(-761.81 -339.39)"/><path class="cls-13" d="M2300.8,425.81h-12.48V413.76h12.48Z" transform="translate(-761.81 -339.39)"/><path class="cls-13" d="M2275.57,425.81H2263.1V413.76h12.47Z" transform="translate(-761.81 -339.39)"/><path class="cls-13" d="M2250.35,425.81h-12.47V413.76h12.47Z" transform="translate(-761.81 -339.39)"/><path class="cls-13" d="M2225.13,425.81h-12.47V413.76h12.47Z" transform="translate(-761.81 -339.39)"/><path class="cls-13" d="M2199.91,425.81h-12.47V413.76h12.47Z" transform="translate(-761.81 -339.39)"/><path class="cls-13" d="M2174.69,425.81h-12.47V413.76h12.47Z" transform="translate(-761.81 -339.39)"/><path class="cls-13" d="M2149.47,425.81H2137V413.76h12.47Z" transform="translate(-761.81 -339.39)"/><path class="cls-13" d="M2124.25,425.81h-12.47V413.76h12.47Z" transform="translate(-761.81 -339.39)"/><path class="cls-13" d="M2099,425.81h-12.47V413.76H2099Z" transform="translate(-761.81 -339.39)"/><path class="cls-13" d="M2073.81,425.81h-12.47V413.76h12.47Z" transform="translate(-761.81 -339.39)"/><path class="cls-13" d="M2048.59,425.81h-12.47V413.76h12.47Z" transform="translate(-761.81 -339.39)"/><path class="cls-13" d="M2023.37,425.81H2010.9V413.76h12.47Z" transform="translate(-761.81 -339.39)"/><path class="cls-13" d="M1998.15,425.81h-12.47V413.76h12.47Z" transform="translate(-761.81 -339.39)"/><path class="cls-13" d="M1972.93,425.81h-12.47V413.76h12.47Z" transform="translate(-761.81 -339.39)"/></g><g class="cls-28"><path class="cls-13" d="M2452.12,457.41h-12.47V445.36h12.47Z" transform="translate(-761.81 -339.39)"/><path class="cls-13" d="M2426.9,457.41h-12.47V445.36h12.47Z" transform="translate(-761.81 -339.39)"/><path class="cls-13" d="M2401.68,457.41h-12.47V445.36h12.47Z" transform="translate(-761.81 -339.39)"/><path class="cls-13" d="M2376.46,457.41H2364V445.36h12.47Z" transform="translate(-761.81 -339.39)"/><path class="cls-13" d="M2351.24,457.41h-12.47V445.36h12.47Z" transform="translate(-761.81 -339.39)"/><path class="cls-13" d="M2326,457.41h-12.48V445.36H2326Z" transform="translate(-761.81 -339.39)"/><path class="cls-13" d="M2300.8,457.41h-12.48V445.36h12.48Z" transform="translate(-761.81 -339.39)"/><path class="cls-13" d="M2275.57,457.41H2263.1V445.36h12.47Z" transform="translate(-761.81 -339.39)"/><path class="cls-13" d="M2250.35,457.41h-12.47V445.36h12.47Z" transform="translate(-761.81 -339.39)"/><path class="cls-13" d="M2225.13,457.41h-12.47V445.36h12.47Z" transform="translate(-761.81 -339.39)"/><path class="cls-13" d="M2199.91,457.41h-12.47V445.36h12.47Z" transform="translate(-761.81 -339.39)"/><path class="cls-13" d="M2174.69,457.41h-12.47V445.36h12.47Z" transform="translate(-761.81 -339.39)"/><path class="cls-13" d="M2149.47,457.41H2137V445.36h12.47Z" transform="translate(-761.81 -339.39)"/><path class="cls-13" d="M2124.25,457.41h-12.47V445.36h12.47Z" transform="translate(-761.81 -339.39)"/><path class="cls-13" d="M2099,457.41h-12.47V445.36H2099Z" transform="translate(-761.81 -339.39)"/><path class="cls-13" d="M2073.81,457.41h-12.47V445.36h12.47Z" transform="translate(-761.81 -339.39)"/><path class="cls-13" d="M2048.59,457.41h-12.47V445.36h12.47Z" transform="translate(-761.81 -339.39)"/><path class="cls-13" d="M2023.37,457.41H2010.9V445.36h12.47Z" transform="translate(-761.81 -339.39)"/><path class="cls-13" d="M1998.15,457.41h-12.47V445.36h12.47Z" transform="translate(-761.81 -339.39)"/><path class="cls-13" d="M1972.93,457.41h-12.47V445.36h12.47Z" transform="translate(-761.81 -339.39)"/></g><g class="cls-28"><path class="cls-13" d="M2225.13,499.11h-12.47V487.06h12.47Z" transform="translate(-761.81 -339.39)"/><path class="cls-13" d="M2199.91,499.11h-12.47V487.06h12.47Z" transform="translate(-761.81 -339.39)"/><path class="cls-13" d="M2174.69,499.11h-12.47V487.06h12.47Z" transform="translate(-761.81 -339.39)"/><path class="cls-13" d="M2149.47,499.11H2137V487.06h12.47Z" transform="translate(-761.81 -339.39)"/><path class="cls-13" d="M2124.25,499.11h-12.47V487.06h12.47Z" transform="translate(-761.81 -339.39)"/><path class="cls-13" d="M2099,499.11h-12.47V487.06H2099Z" transform="translate(-761.81 -339.39)"/><path class="cls-13" d="M2073.81,499.11h-12.47V487.06h12.47Z" transform="translate(-761.81 -339.39)"/><path class="cls-13" d="M2048.59,499.11h-12.47V487.06h12.47Z" transform="translate(-761.81 -339.39)"/><path class="cls-13" d="M2023.37,499.11H2010.9V487.06h12.47Z" transform="translate(-761.81 -339.39)"/><path class="cls-13" d="M1998.15,499.11h-12.47V487.06h12.47Z" transform="translate(-761.81 -339.39)"/><path class="cls-13" d="M1972.93,499.11h-12.47V487.06h12.47Z" transform="translate(-761.81 -339.39)"/></g><g class="cls-28"><path class="cls-3" d="M2644,1000.38v7.7h-7.93v-7.7Z" transform="translate(-761.81 -339.39)"/><path class="cls-3" d="M2644,1016v7.7h-7.93V1016Z" transform="translate(-761.81 -339.39)"/><path class="cls-3" d="M2644,1031.52v7.7h-7.93v-7.7Z" transform="translate(-761.81 -339.39)"/><path class="cls-3" d="M2644,1047.09v7.7h-7.93v-7.7Z" transform="translate(-761.81 -339.39)"/><path class="cls-3" d="M2644,1062.66v7.69h-7.93v-7.69Z" transform="translate(-761.81 -339.39)"/><path class="cls-3" d="M2644,1078.22v7.7h-7.93v-7.7Z" transform="translate(-761.81 -339.39)"/><path class="cls-3" d="M2644,1093.79v7.7h-7.93v-7.7Z" transform="translate(-761.81 -339.39)"/><path class="cls-3" d="M2644,1109.36v7.7h-7.93v-7.7Z" transform="translate(-761.81 -339.39)"/><path class="cls-3" d="M2644,1124.93v7.7h-7.93v-7.7Z" transform="translate(-761.81 -339.39)"/><path class="cls-3" d="M2644,1140.5v7.69h-7.93v-7.69Z" transform="translate(-761.81 -339.39)"/><path class="cls-3" d="M2644,1156.06v7.7h-7.93v-7.7Z" transform="translate(-761.81 -339.39)"/><path class="cls-3" d="M2644,1171.63v7.7h-7.93v-7.7Z" transform="translate(-761.81 -339.39)"/><path class="cls-3" d="M2644,1187.2v7.7h-7.93v-7.7Z" transform="translate(-761.81 -339.39)"/><path class="cls-3" d="M2644,1202.77v7.7h-7.93v-7.7Z" transform="translate(-761.81 -339.39)"/><path class="cls-3" d="M2644,1218.34V1226h-7.93v-7.69Z" transform="translate(-761.81 -339.39)"/><path class="cls-3" d="M2644,1233.9v7.7h-7.93v-7.7Z" transform="translate(-761.81 -339.39)"/><path class="cls-3" d="M2644,1249.47v7.7h-7.93v-7.7Z" transform="translate(-761.81 -339.39)"/><path class="cls-3" d="M2644,1265v7.7h-7.93V1265Z" transform="translate(-761.81 -339.39)"/></g><g class="cls-28"><path class="cls-3" d="M2668.27,1093.79v7.7h-7.93v-7.7Z" transform="translate(-761.81 -339.39)"/><path class="cls-3" d="M2668.27,1109.36v7.7h-7.93v-7.7Z" transform="translate(-761.81 -339.39)"/><path class="cls-3" d="M2668.27,1124.93v7.7h-7.93v-7.7Z" transform="translate(-761.81 -339.39)"/><path class="cls-3" d="M2668.27,1140.5v7.69h-7.93v-7.69Z" transform="translate(-761.81 -339.39)"/><path class="cls-3" d="M2668.27,1156.06v7.7h-7.93v-7.7Z" transform="translate(-761.81 -339.39)"/><path class="cls-3" d="M2668.27,1171.63v7.7h-7.93v-7.7Z" transform="translate(-761.81 -339.39)"/><path class="cls-3" d="M2668.27,1187.2v7.7h-7.93v-7.7Z" transform="translate(-761.81 -339.39)"/><path class="cls-3" d="M2668.27,1202.77v7.7h-7.93v-7.7Z" transform="translate(-761.81 -339.39)"/><path class="cls-3" d="M2668.27,1218.34V1226h-7.93v-7.69Z" transform="translate(-761.81 -339.39)"/><path class="cls-3" d="M2668.27,1233.9v7.7h-7.93v-7.7Z" transform="translate(-761.81 -339.39)"/><path class="cls-3" d="M2668.27,1249.47v7.7h-7.93v-7.7Z" transform="translate(-761.81 -339.39)"/><path class="cls-3" d="M2668.27,1265v7.7h-7.93V1265Z" transform="translate(-761.81 -339.39)"/></g><g class="cls-28"><path class="cls-3" d="M2693,1000.38v7.7H2685v-7.7Z" transform="translate(-761.81 -339.39)"/><path class="cls-3" d="M2693,1016v7.7H2685V1016Z" transform="translate(-761.81 -339.39)"/><path class="cls-3" d="M2693,1031.52v7.7H2685v-7.7Z" transform="translate(-761.81 -339.39)"/><path class="cls-3" d="M2693,1047.09v7.7H2685v-7.7Z" transform="translate(-761.81 -339.39)"/><path class="cls-3" d="M2693,1062.66v7.69H2685v-7.69Z" transform="translate(-761.81 -339.39)"/><path class="cls-3" d="M2693,1078.22v7.7H2685v-7.7Z" transform="translate(-761.81 -339.39)"/><path class="cls-3" d="M2693,1093.79v7.7H2685v-7.7Z" transform="translate(-761.81 -339.39)"/><path class="cls-3" d="M2693,1109.36v7.7H2685v-7.7Z" transform="translate(-761.81 -339.39)"/><path class="cls-3" d="M2693,1124.93v7.7H2685v-7.7Z" transform="translate(-761.81 -339.39)"/><path class="cls-3" d="M2693,1140.5v7.69H2685v-7.69Z" transform="translate(-761.81 -339.39)"/><path class="cls-3" d="M2693,1156.06v7.7H2685v-7.7Z" transform="translate(-761.81 -339.39)"/><path class="cls-3" d="M2693,1171.63v7.7H2685v-7.7Z" transform="translate(-761.81 -339.39)"/><path class="cls-3" d="M2693,1187.2v7.7H2685v-7.7Z" transform="translate(-761.81 -339.39)"/><path class="cls-3" d="M2693,1202.77v7.7H2685v-7.7Z" transform="translate(-761.81 -339.39)"/><path class="cls-3" d="M2693,1218.34V1226H2685v-7.69Z" transform="translate(-761.81 -339.39)"/><path class="cls-3" d="M2693,1233.9v7.7H2685v-7.7Z" transform="translate(-761.81 -339.39)"/><path class="cls-3" d="M2693,1249.47v7.7H2685v-7.7Z" transform="translate(-761.81 -339.39)"/><path class="cls-3" d="M2693,1265v7.7H2685V1265Z" transform="translate(-761.81 -339.39)"/></g><g class="cls-28"><path class="cls-3" d="M2713.77,969.25v7.69h-7.93v-7.69Z" transform="translate(-761.81 -339.39)"/><path class="cls-3" d="M2713.77,984.81v7.7h-7.93v-7.7Z" transform="translate(-761.81 -339.39)"/><path class="cls-3" d="M2713.77,1000.38v7.7h-7.93v-7.7Z" transform="translate(-761.81 -339.39)"/><path class="cls-3" d="M2713.77,1016v7.7h-7.93V1016Z" transform="translate(-761.81 -339.39)"/><path class="cls-3" d="M2713.77,1031.52v7.7h-7.93v-7.7Z" transform="translate(-761.81 -339.39)"/><path class="cls-3" d="M2713.77,1047.09v7.7h-7.93v-7.7Z" transform="translate(-761.81 -339.39)"/><path class="cls-3" d="M2713.77,1062.66v7.69h-7.93v-7.69Z" transform="translate(-761.81 -339.39)"/><path class="cls-3" d="M2713.77,1078.22v7.7h-7.93v-7.7Z" transform="translate(-761.81 -339.39)"/><path class="cls-3" d="M2713.77,1093.79v7.7h-7.93v-7.7Z" transform="translate(-761.81 -339.39)"/><path class="cls-3" d="M2713.77,1109.36v7.7h-7.93v-7.7Z" transform="translate(-761.81 -339.39)"/><path class="cls-3" d="M2713.77,1124.93v7.7h-7.93v-7.7Z" transform="translate(-761.81 -339.39)"/><path class="cls-3" d="M2713.77,1140.5v7.69h-7.93v-7.69Z" transform="translate(-761.81 -339.39)"/><path class="cls-3" d="M2713.77,1156.06v7.7h-7.93v-7.7Z" transform="translate(-761.81 -339.39)"/><path class="cls-3" d="M2713.77,1171.63v7.7h-7.93v-7.7Z" transform="translate(-761.81 -339.39)"/><path class="cls-3" d="M2713.77,1187.2v7.7h-7.93v-7.7Z" transform="translate(-761.81 -339.39)"/><path class="cls-3" d="M2713.77,1202.77v7.7h-7.93v-7.7Z" transform="translate(-761.81 -339.39)"/><path class="cls-3" d="M2713.77,1218.34V1226h-7.93v-7.69Z" transform="translate(-761.81 -339.39)"/><path class="cls-3" d="M2713.77,1233.9v7.7h-7.93v-7.7Z" transform="translate(-761.81 -339.39)"/><path class="cls-3" d="M2713.77,1249.47v7.7h-7.93v-7.7Z" transform="translate(-761.81 -339.39)"/><path class="cls-3" d="M2713.77,1265v7.7h-7.93V1265Z" transform="translate(-761.81 -339.39)"/></g><g class="cls-28"><path class="cls-3" d="M2741.21,1109.36v7.7h-7.93v-7.7Z" transform="translate(-761.81 -339.39)"/><path class="cls-3" d="M2741.21,1124.93v7.7h-7.93v-7.7Z" transform="translate(-761.81 -339.39)"/><path class="cls-3" d="M2741.21,1140.5v7.69h-7.93v-7.69Z" transform="translate(-761.81 -339.39)"/><path class="cls-3" d="M2741.21,1156.06v7.7h-7.93v-7.7Z" transform="translate(-761.81 -339.39)"/><path class="cls-3" d="M2741.21,1171.63v7.7h-7.93v-7.7Z" transform="translate(-761.81 -339.39)"/><path class="cls-3" d="M2741.21,1187.2v7.7h-7.93v-7.7Z" transform="translate(-761.81 -339.39)"/><path class="cls-3" d="M2741.21,1202.77v7.7h-7.93v-7.7Z" transform="translate(-761.81 -339.39)"/><path class="cls-3" d="M2741.21,1218.34V1226h-7.93v-7.69Z" transform="translate(-761.81 -339.39)"/><path class="cls-3" d="M2741.21,1233.9v7.7h-7.93v-7.7Z" transform="translate(-761.81 -339.39)"/><path class="cls-3" d="M2741.21,1249.47v7.7h-7.93v-7.7Z" transform="translate(-761.81 -339.39)"/><path class="cls-3" d="M2741.21,1265v7.7h-7.93V1265Z" transform="translate(-761.81 -339.39)"/></g></svg>